<svg xmlns="http://www.w3.org/2000/svg" xmlns:xlink="http://www.w3.org/1999/xlink" width="437" zoomAndPan="magnify" viewBox="0 0 327.75 189.750001" height="253" preserveAspectRatio="xMidYMid meet" version="1.0"><defs><clipPath id="5a69f8df05"><path d="M 0.0898438 0 L 327.410156 0 L 327.410156 189.5 L 0.0898438 189.5 Z M 0.0898438 0 " clip-rule="nonzero"/></clipPath><clipPath id="a8ffbc0453"><path d="M 62 144 L 265.601562 144 L 265.601562 185 L 62 185 Z M 62 144 " clip-rule="nonzero"/></clipPath><clipPath id="339ee8b3ff"><path d="M 61.867188 143 L 265.601562 143 L 265.601562 185 L 61.867188 185 Z M 61.867188 143 " clip-rule="nonzero"/></clipPath><clipPath id="61fded3ac4"><path d="M 145 165 L 179 165 L 179 189.5 L 145 189.5 Z M 145 165 " clip-rule="nonzero"/></clipPath><clipPath id="bba9e05a80"><path d="M 190 166 L 224 166 L 224 189.5 L 190 189.5 Z M 190 166 " clip-rule="nonzero"/></clipPath><clipPath id="d0a73761b4"><path d="M 144 152 L 180 152 L 180 189.5 L 144 189.5 Z M 144 152 " clip-rule="nonzero"/></clipPath><clipPath id="7951953524"><path d="M 190 152 L 224 152 L 224 189.5 L 190 189.5 Z M 190 152 " clip-rule="nonzero"/></clipPath></defs><g clip-path="url(#5a69f8df05)"><path fill="#ffffff" d="M 0.0898438 0 L 327.410156 0 L 327.410156 189.5 L 0.0898438 189.5 Z M 0.0898438 0 " fill-opacity="1" fill-rule="nonzero"/><path fill="#ffffff" d="M 0.0898438 0 L 327.410156 0 L 327.410156 189.5 L 0.0898438 189.5 Z M 0.0898438 0 " fill-opacity="1" fill-rule="nonzero"/></g><path fill="#ffffff" d="M 158.453125 99.222656 C 153.410156 99.804688 149.542969 99.734375 146.84375 99.011719 C 144.148438 98.292969 142.023438 96.757812 140.46875 94.414062 C 138.769531 90.824219 137.828125 88.765625 137.644531 88.242188 C 136.734375 85.671875 136.632812 83.144531 136.808594 81.445312 C 137.035156 79.226562 138.253906 76.332031 140.46875 72.765625 C 140.78125 70.285156 141.304688 68.089844 142.035156 66.179688 C 142.765625 64.265625 144.230469 61.511719 146.425781 57.917969 L 146.742188 46.101562 C 147.667969 43.394531 148.539062 41.480469 149.355469 40.347656 C 150.171875 39.21875 151.113281 38.628906 152.179688 38.570312 C 153.078125 38.484375 153.914062 38.695312 154.6875 39.199219 C 155.460938 39.703125 156.925781 40.992188 159.078125 43.066406 C 160.859375 39.960938 162.878906 37.59375 165.144531 35.957031 C 167.40625 34.320312 170.402344 33.066406 174.136719 32.191406 L 174.65625 31.148438 L 174.722656 24.996094 L 172.984375 10.023438 L 170.683594 10.023438 L 174.238281 4.796875 C 174.558594 3.644531 174.871094 2.804688 175.179688 2.285156 C 175.492188 1.765625 176.070312 1.171875 176.917969 0.507812 C 176.933594 0.316406 177.632812 0.210938 179.011719 0.195312 C 180.390625 0.175781 182.5625 0.246094 185.53125 0.402344 C 186.796875 0.695312 187.671875 1.078125 188.144531 1.554688 C 188.621094 2.027344 189.039062 3.039062 189.402344 4.585938 L 194.496094 10.03125 L 191.28125 10.234375 L 190.96875 20.167969 C 190.523438 21.871094 190.101562 23.019531 189.714844 23.617188 C 189.324219 24.214844 188.699219 24.667969 187.832031 24.976562 L 182.710938 25.289062 L 182.082031 31.355469 L 182.5 32.191406 C 185.117188 32.941406 186.894531 33.535156 187.832031 33.96875 C 190.085938 35.019531 192.125 36.539062 193.6875 39.199219 C 194.78125 41.058594 195.914062 43.632812 197.453125 46.308594 C 198.804688 48.667969 201.277344 52.816406 204.875 58.753906 L 208.429688 61.890625 L 210.207031 65.445312 L 214.496094 68.6875 L 216.480469 62.203125 C 212.4375 56.070312 210.417969 52.164062 210.417969 50.492188 C 210.417969 49.792969 210.839844 49.132812 211.253906 48.714844 C 211.828125 48.132812 212.621094 47.773438 213.972656 47.878906 C 214.871094 47.949219 215.742188 48.507812 216.585938 49.550781 L 228.609375 81.863281 C 227.414062 85.785156 226.367188 88.714844 225.472656 90.648438 C 224.578125 92.582031 223.253906 94.5 221.5 96.398438 C 218.972656 97.816406 216.847656 98.652344 215.121094 98.910156 C 213.398438 99.164062 210.574219 98.917969 206.652344 98.175781 C 205.28125 97.546875 204.375 96.957031 203.933594 96.398438 C 202.308594 94.335938 201.625 91.71875 200.796875 90.332031 C 199.632812 88.386719 198.9375 86.574219 198.707031 84.894531 L 193.269531 67.222656 L 169.742188 66.492188 L 167.546875 84.375 C 166.347656 89.234375 165.058594 92.789062 163.679688 95.039062 C 162.300781 97.289062 160.558594 98.683594 158.453125 99.222656 Z M 158.453125 99.222656 " fill-opacity="1" fill-rule="evenodd"/><path fill="#ffffff" d="M 160.070312 103.074219 C 159.644531 102.996094 159.332031 102.960938 159.128906 102.960938 C 158.355469 102.964844 157.722656 102.925781 157.351562 102.332031 C 156.835938 101.511719 156.976562 100.535156 157.769531 99.402344 L 159.96875 98.671875 L 161.011719 98.671875 L 168.652344 98.984375 L 171.058594 98.671875 L 179.535156 98.355469 C 180.441406 98.773438 180.753906 99.578125 180.476562 100.761719 C 180.195312 101.949219 179.429688 102.683594 178.175781 102.960938 L 175.664062 103.074219 L 158.710938 180.8125 L 147.828125 180.8125 C 149.691406 168.597656 151.191406 159.414062 152.328125 153.257812 C 153.464844 147.101562 156.046875 130.375 160.070312 103.074219 Z M 186.648438 103.074219 C 186.632812 102.828125 185.96875 102.789062 184.660156 102.960938 C 183.546875 102.402344 183.09375 101.53125 183.300781 100.34375 C 183.511719 99.160156 184.035156 98.53125 184.871094 98.460938 L 186.441406 98.671875 L 191.253906 98.671875 L 196.066406 98.984375 L 201.402344 98.460938 C 203.078125 98.601562 203.914062 99.367188 203.914062 100.761719 C 203.914062 101.554688 203.648438 101.96875 203.289062 102.332031 C 203.105469 102.519531 202.757812 102.726562 202.242188 102.960938 L 200.566406 103.074219 L 204.855469 180.917969 L 193.554688 180.917969 C 192.035156 166.917969 191.058594 157.105469 190.625 151.476562 C 190.113281 144.773438 187.210938 111.457031 186.648438 103.074219 Z M 186.648438 103.074219 " fill-opacity="1" fill-rule="evenodd"/><path stroke-linecap="butt" transform="matrix(0.328599, 0, 0, 0.328637, 61.868265, 0.0369658)" fill="none" stroke-linejoin="miter" d="M 298.850436 313.208091 L 346.305648 313.208091 L 294.713559 549.755614 L 261.594766 549.755614 C 267.265141 512.599312 271.829971 484.64294 275.289256 465.910268 C 278.748542 447.177597 286.606231 396.280833 298.850436 313.208091 Z M 379.733518 313.208091 L 422.088959 313.208091 L 435.14152 550.076542 L 400.750756 550.076542 C 396.126489 507.476355 393.154594 477.618188 391.835073 460.490155 C 390.2778 440.093414 381.445329 338.715904 379.733518 313.208091 Z M 379.733518 313.208091 " stroke="#263e4b" stroke-width="0.955" stroke-opacity="1" stroke-miterlimit="4"/><path fill="#bad9ea" d="M 169.804688 33.613281 L 158.003906 33.671875 C 152.121094 33.699219 147.28125 38.320312 146.980469 44.199219 L 146.78125 48.074219 C 146.96875 46.078125 147.210938 44.683594 147.515625 43.882812 C 147.996094 42.609375 148.554688 41.878906 149.1875 41.054688 C 150.148438 39.804688 151.234375 38.753906 152.117188 38.539062 C 154.140625 38.050781 156.410156 39.621094 158.921875 43.253906 C 159.339844 42.441406 159.691406 41.8125 159.96875 41.367188 C 160.519531 40.480469 161.109375 39.523438 162.164062 38.539062 C 164.257812 36.582031 166.804688 34.941406 169.804688 33.613281 Z M 169.804688 33.613281 " fill-opacity="1" fill-rule="evenodd"/><path fill="#bad9ea" d="M 160.175781 98.464844 C 161.253906 98.859375 163.277344 99.03125 166.246094 98.988281 C 167.863281 98.964844 170.773438 98.484375 173.257812 98.359375 C 174.640625 98.292969 176.734375 98.292969 179.535156 98.359375 L 181.941406 91.96875 L 184.242188 91.96875 L 184.976562 98.359375 C 187.425781 98.511719 189.167969 98.617188 190.207031 98.675781 C 192.441406 98.796875 194.300781 98.882812 195.753906 98.882812 C 198.21875 98.882812 200.03125 98.710938 201.195312 98.359375 L 195.859375 68.5 L 171.058594 69.445312 C 170.734375 73.992188 169.550781 78.984375 167.5 84.425781 C 167.066406 85.585938 166.996094 87.050781 166.558594 88.511719 C 165.894531 90.738281 165.164062 92.890625 164.363281 94.378906 C 163.601562 95.792969 162.207031 97.152344 160.175781 98.464844 Z M 160.175781 98.464844 " fill-opacity="1" fill-rule="evenodd"/><path fill="#263e4b" d="M 201.03125 98.429688 L 198.632812 84.453125 C 198.617188 84.367188 198.675781 84.285156 198.761719 84.273438 C 198.847656 84.257812 198.929688 84.3125 198.941406 84.398438 L 201.328125 98.308594 L 201.664062 98.308594 C 202.996094 98.308594 204.070312 99.386719 204.070312 100.71875 C 204.070312 102.046875 202.996094 103.128906 201.664062 103.128906 L 185.15625 103.128906 C 183.976562 103.128906 183.019531 102.171875 183.019531 100.992188 C 183.019531 100.890625 183.027344 100.792969 183.042969 100.695312 L 183.167969 99.796875 C 183.28125 98.988281 183.90625 98.351562 184.699219 98.222656 L 184.101562 92.125 L 182.050781 92.125 L 179.75 98.234375 C 180.390625 98.382812 180.847656 98.984375 180.792969 99.660156 C 180.789062 99.71875 180.78125 99.777344 180.769531 99.835938 L 180.578125 100.75 C 180.289062 102.136719 179.066406 103.128906 177.65625 103.128906 L 158.511719 103.128906 C 157.628906 103.128906 156.914062 102.410156 156.914062 101.527344 C 156.914062 101.359375 156.941406 101.195312 156.992188 101.035156 C 157.132812 100.605469 157.304688 100.046875 157.515625 99.363281 C 157.539062 99.277344 157.628906 99.234375 157.710938 99.257812 C 157.792969 99.28125 157.839844 99.371094 157.816406 99.453125 C 157.605469 100.140625 157.429688 100.699219 157.292969 101.132812 C 157.25 101.261719 157.230469 101.394531 157.230469 101.527344 C 157.230469 102.238281 157.804688 102.8125 158.511719 102.8125 L 177.65625 102.8125 C 178.917969 102.8125 180.011719 101.925781 180.269531 100.683594 L 180.460938 99.769531 C 180.472656 99.726562 180.476562 99.679688 180.480469 99.636719 C 180.523438 99.0625 180.097656 98.5625 179.527344 98.515625 C 178.226562 98.492188 177.308594 98.480469 176.773438 98.476562 C 175.316406 98.476562 171.207031 98.714844 170.347656 98.832031 C 168.394531 99.089844 167.363281 99.128906 165.675781 99.074219 C 165.621094 99.070312 165.621094 99.070312 165.566406 99.070312 C 164.960938 99.046875 164.675781 99.042969 164.289062 99.042969 C 162.894531 99.042969 161.851562 99.007812 161.160156 98.9375 C 160.347656 98.851562 159.980469 98.738281 160.019531 98.441406 L 160.332031 98.488281 C 160.335938 98.464844 160.328125 98.449219 160.324219 98.441406 C 160.347656 98.457031 160.390625 98.476562 160.457031 98.5 C 160.613281 98.546875 160.859375 98.589844 161.191406 98.625 C 161.871094 98.691406 162.902344 98.726562 164.289062 98.726562 C 164.679688 98.726562 164.96875 98.734375 165.578125 98.753906 C 165.632812 98.757812 165.632812 98.757812 165.6875 98.757812 C 167.355469 98.816406 168.375 98.777344 170.304688 98.519531 C 171.179688 98.402344 175.300781 98.164062 176.773438 98.164062 C 177.296875 98.164062 178.183594 98.175781 179.425781 98.203125 L 181.792969 91.914062 C 181.816406 91.851562 181.875 91.8125 181.941406 91.8125 L 185.605469 91.8125 C 185.691406 91.8125 185.761719 91.882812 185.761719 91.96875 C 185.761719 92.054688 185.691406 92.125 185.605469 92.125 L 184.417969 92.125 L 185.015625 98.242188 C 185.710938 98.355469 187.09375 98.414062 189.160156 98.414062 C 189.9375 98.414062 193.734375 98.625 194.828125 98.726562 C 196.070312 98.84375 198.140625 98.746094 201.03125 98.429688 Z M 201.199219 98.621094 L 201.210938 98.726562 C 198.226562 99.058594 196.089844 99.164062 194.796875 99.039062 C 193.714844 98.9375 189.925781 98.726562 189.160156 98.726562 C 186.953125 98.726562 185.515625 98.660156 184.839844 98.527344 L 184.84375 98.519531 C 184.140625 98.59375 183.574219 99.136719 183.476562 99.839844 L 183.351562 100.738281 C 183.339844 100.824219 183.335938 100.90625 183.335938 100.992188 C 183.335938 101.996094 184.148438 102.8125 185.15625 102.8125 L 201.664062 102.8125 C 202.820312 102.8125 203.757812 101.875 203.757812 100.71875 C 203.757812 99.558594 202.820312 98.621094 201.664062 98.621094 Z M 201.199219 98.621094 " fill-opacity="1" fill-rule="nonzero"/><path fill="#263e4b" d="M 182.925781 25.285156 L 182.316406 31.726562 C 187.277344 33.414062 190.449219 34.878906 191.84375 36.136719 C 193.65625 37.765625 198.292969 47.179688 200.667969 53.359375 C 201.386719 55.226562 202.5 56.40625 205.199219 58.59375 L 205.425781 58.777344 C 208.136719 60.976562 209.242188 62.164062 209.921875 64.046875 C 210.96875 66.960938 213.066406 67.660156 216.300781 66.160156 C 216.378906 66.121094 216.472656 66.15625 216.507812 66.234375 C 216.546875 66.316406 216.511719 66.40625 216.433594 66.445312 C 213.039062 68.015625 210.742188 67.25 209.628906 64.15625 C 208.976562 62.339844 207.894531 61.183594 205.226562 59.023438 L 205 58.839844 C 202.257812 56.617188 201.117188 55.40625 200.375 53.472656 C 198.019531 47.347656 193.390625 37.949219 191.636719 36.367188 C 190.269531 35.140625 187.089844 33.671875 182.101562 31.984375 C 182.03125 31.960938 181.988281 31.890625 181.996094 31.820312 L 182.613281 25.285156 L 180.789062 25.285156 C 180.703125 25.285156 180.632812 25.214844 180.632812 25.128906 C 180.632812 25.042969 180.703125 24.972656 180.789062 24.972656 L 182.78125 24.972656 C 182.785156 24.972656 182.785156 24.972656 182.785156 24.972656 L 186.273438 24.972656 C 188.433594 24.972656 189.683594 24.09375 190.339844 22.316406 C 190.863281 20.886719 190.992188 19.238281 190.992188 15.710938 L 190.992188 13.304688 C 190.992188 13.273438 190.992188 13.246094 190.992188 13.183594 C 190.992188 12.015625 190.941406 11.34375 190.691406 10.316406 C 190.683594 10.3125 190.675781 10.304688 190.667969 10.296875 C 190.644531 10.269531 190.609375 10.238281 190.566406 10.199219 L 175.601562 10.199219 C 175.515625 10.199219 175.445312 10.128906 175.445312 10.042969 C 175.445312 9.957031 175.515625 9.886719 175.601562 9.886719 L 190.625 9.886719 C 190.664062 9.886719 190.703125 9.898438 190.730469 9.925781 C 190.914062 10.089844 190.96875 10.144531 190.988281 10.214844 C 191.25 11.285156 191.308594 11.984375 191.304688 13.183594 C 191.304688 13.246094 191.304688 13.273438 191.304688 13.304688 L 191.304688 15.710938 C 191.304688 19.277344 191.175781 20.949219 190.632812 22.425781 C 189.933594 24.324219 188.5625 25.285156 186.273438 25.285156 Z M 228.773438 81.65625 L 229.074219 81.746094 C 226.445312 90.6875 223.652344 95.898438 220.664062 97.390625 C 215.957031 99.738281 210.203125 99.917969 205.519531 97.621094 C 204.902344 97.316406 204.414062 96.890625 203.921875 96.238281 C 203.570312 95.773438 203.222656 95.214844 202.671875 94.242188 C 202.523438 93.988281 201.972656 93.007812 201.890625 92.867188 C 201.546875 92.253906 201.246094 91.734375 200.925781 91.191406 C 200.488281 90.445312 199.867188 88.804688 199.058594 86.253906 L 199.355469 86.160156 C 200.160156 88.6875 200.773438 90.316406 201.195312 91.03125 C 201.515625 91.574219 201.816406 92.097656 202.164062 92.710938 C 202.246094 92.855469 202.796875 93.832031 202.941406 94.085938 C 203.492188 95.046875 203.832031 95.597656 204.171875 96.046875 C 204.636719 96.664062 205.085938 97.054688 205.660156 97.335938 C 210.25 99.59375 215.902344 99.414062 220.523438 97.109375 C 223.40625 95.671875 226.167969 90.515625 228.773438 81.65625 Z M 228.773438 81.65625 " fill-opacity="1" fill-rule="nonzero"/><path fill="#bad9ea" d="M 185.707031 33.195312 L 187.589844 33.929688 C 188.917969 37.980469 189.929688 41.4375 190.625 44.300781 C 191.324219 47.164062 191.777344 51.425781 191.988281 57.082031 L 189.371094 56.347656 C 189.578125 51.808594 189.195312 47.792969 188.21875 44.300781 C 187.792969 42.78125 186.957031 39.078125 185.707031 33.195312 Z M 169.699219 33.613281 L 171.476562 32.882812 C 171.894531 35.976562 172.105469 38.421875 172.105469 40.214844 C 172.105469 42.007812 172.105469 43.824219 172.105469 45.664062 L 169.382812 49.539062 C 169.804688 48.28125 170.011719 45.453125 170.011719 41.054688 C 170.011719 36.652344 169.90625 34.171875 169.699219 33.613281 Z M 169.699219 33.613281 " fill-opacity="1" fill-rule="evenodd"/><path fill="#263e4b" d="M 185.660156 33.226562 L 185.597656 32.945312 L 187.824219 33.808594 L 187.84375 33.878906 C 189.171875 37.933594 190.183594 41.394531 190.882812 44.261719 C 191.582031 47.140625 192.039062 51.410156 192.246094 57.078125 L 192.253906 57.292969 L 189.3125 56.464844 L 189.320312 56.339844 C 189.527344 51.816406 189.144531 47.816406 188.171875 44.34375 C 187.746094 42.816406 186.910156 39.113281 185.660156 33.226562 Z M 188.476562 44.257812 C 189.449219 47.734375 189.835938 51.726562 189.636719 56.230469 L 191.925781 56.871094 C 191.714844 51.332031 191.265625 47.152344 190.578125 44.339844 C 189.886719 41.496094 188.882812 38.066406 187.570312 34.046875 L 186.027344 33.449219 C 187.242188 39.160156 188.058594 42.765625 188.476562 44.257812 Z M 169.65625 33.667969 L 169.601562 33.527344 L 171.710938 32.660156 L 171.738281 32.859375 C 172.15625 35.964844 172.367188 38.414062 172.367188 40.214844 L 172.367188 45.710938 L 169 50.507812 L 169.339844 49.488281 C 169.75 48.253906 169.960938 45.433594 169.960938 41.054688 C 169.960938 36.6875 169.855469 34.199219 169.65625 33.667969 Z M 170.273438 41.054688 C 170.273438 44.6875 170.132812 47.25 169.84375 48.757812 L 172.054688 45.613281 L 172.054688 40.214844 C 172.054688 38.46875 171.851562 36.097656 171.453125 33.105469 L 169.992188 33.707031 C 170.183594 34.492188 170.273438 36.921875 170.273438 41.054688 Z M 170.273438 41.054688 " fill-opacity="1" fill-rule="nonzero"/><path fill="#263e4b" d="M 182.730469 33.660156 L 183.035156 33.570312 L 197.269531 81.671875 C 198.082031 85.925781 201.011719 88.039062 206.113281 88.039062 C 211.214844 88.039062 215.410156 84.632812 218.699219 77.78125 L 218.984375 77.917969 C 215.644531 84.867188 211.351562 88.355469 206.113281 88.355469 C 200.871094 88.355469 197.804688 86.140625 196.964844 81.746094 Z M 190.472656 72.5625 L 190.78125 72.613281 C 189.164062 83.089844 186.128906 88.355469 181.628906 88.355469 C 177.984375 88.355469 175.5625 77.007812 174.5625 55.308594 C 174.375 51.21875 174.273438 44.230469 174.25 34.347656 L 174.5625 34.347656 C 174.585938 44.226562 174.691406 51.207031 174.878906 55.292969 C 175.863281 76.710938 178.28125 88.039062 181.628906 88.039062 C 185.914062 88.039062 188.878906 82.902344 190.472656 72.5625 Z M 190.472656 72.5625 " fill-opacity="1" fill-rule="nonzero"/><path fill="#263e4b" d="M 206.109375 67.410156 L 217.074219 66.257812 L 217.722656 72.429688 L 206.757812 73.582031 Z M 195.9375 56.347656 L 194.910156 46.542969 C 195.320312 45.484375 196.410156 44.859375 198.175781 44.675781 C 199.941406 44.488281 201.136719 44.871094 201.761719 45.824219 L 202.792969 55.628906 Z M 224.71875 53.324219 L 217.867188 54.042969 L 216.835938 44.238281 C 217.25 43.179688 218.339844 42.554688 220.105469 42.371094 C 221.871094 42.183594 223.066406 42.566406 223.6875 43.519531 Z M 224.71875 53.324219 " fill-opacity="1" fill-rule="evenodd"/><path fill="#ffffff" d="M 195.078125 67.234375 L 193.484375 52.082031 C 194.152344 50.441406 195.898438 49.472656 198.722656 49.175781 C 201.546875 48.878906 203.457031 49.460938 204.449219 50.929688 L 206.042969 66.082031 Z M 227.96875 63.777344 L 217.007812 64.929688 L 215.414062 49.777344 C 216.082031 48.136719 217.828125 47.167969 220.652344 46.871094 C 223.476562 46.574219 225.382812 47.15625 226.378906 48.625 Z M 227.96875 63.777344 " fill-opacity="1" fill-rule="evenodd"/><path stroke-linecap="round" transform="matrix(0.328599, 0, 0, 0.328637, 61.868265, 0.0369658)" fill-opacity="1" fill="#ffffff" fill-rule="evenodd" stroke-linejoin="round" d="M 405.172936 204.603763 L 400.334691 158.497143 C 402.355579 153.504934 407.669327 150.545267 416.264046 149.653801 C 424.858765 148.750448 430.671791 150.521494 433.691236 154.99071 L 438.541367 201.09733 Z M 505.278231 194.084465 L 471.909799 197.590897 L 467.059668 151.484277 C 469.092443 146.492068 474.406191 143.532401 483.00091 142.629049 C 491.595629 141.725697 497.408655 143.508629 500.4281 147.977845 Z M 505.278231 194.084465 " stroke="#263e4b" stroke-width="0.955" stroke-opacity="1" stroke-miterlimit="4"/><path fill="#ffffff" d="M 194.738281 84.03125 L 192.898438 66.5 C 193.851562 64.582031 196.269531 63.417969 200.152344 63.011719 C 204.035156 62.601562 206.640625 63.238281 207.972656 64.914062 L 209.816406 82.445312 Z M 231.742188 80.140625 L 216.667969 81.726562 L 214.824219 64.195312 C 215.777344 62.277344 218.195312 61.113281 222.082031 60.707031 C 225.964844 60.296875 228.570312 60.933594 229.902344 62.609375 Z M 231.742188 80.140625 " fill-opacity="1" fill-rule="evenodd"/><path fill="#263e4b" d="M 194.707031 84.191406 C 194.621094 84.199219 194.542969 84.136719 194.535156 84.050781 L 192.691406 66.519531 C 192.691406 66.492188 192.695312 66.460938 192.707031 66.433594 C 193.691406 64.457031 196.15625 63.273438 200.085938 62.859375 C 204.019531 62.445312 206.675781 63.09375 208.046875 64.824219 C 208.066406 64.847656 208.078125 64.875 208.082031 64.902344 L 209.921875 82.433594 C 209.933594 82.519531 209.871094 82.597656 209.785156 82.605469 Z M 209.59375 82.308594 L 207.773438 64.984375 C 206.472656 63.382812 203.925781 62.773438 200.121094 63.171875 C 196.3125 63.570312 193.949219 64.699219 193.011719 66.535156 L 194.832031 83.863281 Z M 231.851562 80.128906 C 231.859375 80.214844 231.796875 80.292969 231.710938 80.300781 L 216.636719 81.886719 C 216.550781 81.894531 216.472656 81.832031 216.464844 81.746094 L 214.621094 64.214844 C 214.617188 64.1875 214.625 64.15625 214.636719 64.128906 C 215.621094 62.152344 218.085938 60.96875 222.015625 60.554688 C 225.945312 60.140625 228.605469 60.789062 229.976562 62.515625 C 229.996094 62.539062 230.007812 62.570312 230.007812 62.597656 Z M 231.523438 80.003906 L 229.703125 62.675781 C 228.402344 61.078125 225.855469 60.464844 222.046875 60.867188 C 218.242188 61.265625 215.875 62.394531 214.9375 64.230469 L 216.757812 81.558594 Z M 231.523438 80.003906 " fill-opacity="1" fill-rule="nonzero"/><path fill="#263e4b" d="M 202.5 85.8125 C 198.335938 86.25 194.839844 85.453125 194.691406 84.035156 C 194.542969 82.613281 197.796875 81.109375 201.960938 80.671875 C 206.121094 80.234375 209.617188 81.03125 209.765625 82.449219 C 209.917969 83.871094 206.664062 85.375 202.5 85.8125 Z M 224.429688 83.507812 C 220.265625 83.945312 216.769531 83.148438 216.621094 81.730469 C 216.46875 80.308594 219.722656 78.804688 223.886719 78.367188 C 228.050781 77.929688 231.546875 78.726562 231.695312 80.144531 C 231.84375 81.566406 228.589844 83.070312 224.429688 83.507812 Z M 224.429688 83.507812 " fill-opacity="1" fill-rule="evenodd"/><path fill="#263e4b" d="M 190.984375 70.199219 C 192.300781 70.058594 193.257812 68.878906 193.117188 67.5625 C 192.980469 66.246094 191.800781 65.289062 190.484375 65.429688 C 189.167969 65.566406 188.214844 66.746094 188.351562 68.0625 C 188.488281 69.378906 189.667969 70.335938 190.984375 70.199219 Z M 190.953125 69.886719 C 189.808594 70.003906 188.785156 69.175781 188.664062 68.03125 C 188.542969 66.886719 189.375 65.859375 190.515625 65.742188 C 191.660156 65.621094 192.6875 66.453125 192.804688 67.59375 C 192.925781 68.738281 192.097656 69.765625 190.953125 69.886719 Z M 190.953125 69.886719 " fill-opacity="1" fill-rule="nonzero"/><path fill="#263e4b" d="M 140.742188 72.789062 L 142.855469 72.019531 C 142.9375 71.992188 143.027344 72.035156 143.058594 72.113281 C 143.089844 72.195312 143.046875 72.285156 142.964844 72.316406 L 141.085938 73 L 142.992188 74.128906 C 143.066406 74.171875 143.089844 74.269531 143.046875 74.34375 C 143.003906 74.417969 142.90625 74.441406 142.832031 74.398438 L 140.703125 73.140625 L 140.664062 73.15625 C 140.644531 73.160156 140.625 73.164062 140.605469 73.164062 C 136.761719 78.289062 135.875 83.34375 137.929688 88.347656 C 139.929688 93.226562 140.832031 94.96875 142.347656 96.472656 C 144.097656 98.203125 146.507812 99.105469 150.671875 99.566406 C 158.527344 100.4375 163.113281 97.832031 165.15625 92.023438 C 166.433594 88.394531 167.164062 85.851562 167.34375 84.40625 C 167.355469 84.320312 167.433594 84.257812 167.519531 84.269531 C 167.605469 84.28125 167.667969 84.359375 167.65625 84.445312 C 167.46875 85.921875 166.734375 88.476562 165.453125 92.125 C 163.359375 98.078125 158.628906 100.765625 150.636719 99.878906 C 146.410156 99.410156 143.9375 98.484375 142.128906 96.695312 C 140.570312 95.152344 139.660156 93.386719 137.636719 88.46875 C 135.527344 83.324219 136.460938 78.128906 140.417969 72.890625 C 140.847656 67.574219 142.773438 62.59375 146.203125 57.960938 C 149.617188 53.34375 153.140625 49.867188 156.765625 47.542969 C 159.21875 41.039062 162.777344 36.683594 167.449219 34.488281 C 169.773438 33.390625 171.519531 32.664062 172.6875 32.304688 C 173.472656 32.0625 174.027344 31.972656 174.339844 32.070312 L 174.878906 22.1875 C 174.882812 22.101562 174.957031 22.035156 175.042969 22.039062 C 175.128906 22.042969 175.195312 22.117188 175.191406 22.203125 L 174.632812 32.484375 C 174.621094 32.6875 174.316406 32.679688 174.316406 32.476562 C 174.316406 32.285156 173.832031 32.277344 172.78125 32.601562 C 171.628906 32.960938 169.894531 33.683594 167.582031 34.773438 C 162.980469 36.9375 159.46875 41.242188 157.042969 47.703125 C 157.03125 47.734375 157.007812 47.761719 156.980469 47.78125 C 153.371094 50.082031 149.863281 53.539062 146.453125 58.148438 C 143.085938 62.699219 141.183594 67.578125 140.742188 72.789062 Z M 140.742188 72.789062 " fill-opacity="1" fill-rule="nonzero"/><path fill="#ffffff" d="M 174.511719 31.203125 L 173.042969 34.929688 C 172.957031 35.144531 173.0625 35.386719 173.277344 35.472656 C 173.363281 35.503906 173.457031 35.507812 173.542969 35.484375 L 179.820312 33.742188 L 183.976562 35.222656 C 184.195312 35.300781 184.433594 35.1875 184.511719 34.96875 C 184.558594 34.839844 184.539062 34.695312 184.457031 34.582031 L 182.152344 31.414062 C 181.722656 31.785156 180.808594 31.972656 179.402344 31.972656 C 177.996094 31.972656 176.367188 31.71875 174.511719 31.203125 Z M 174.511719 31.203125 " fill-opacity="1" fill-rule="evenodd"/><path fill="#263e4b" d="M 179.722656 33.859375 L 173.691406 35.53125 C 173.570312 35.566406 173.441406 35.558594 173.324219 35.511719 C 173.027344 35.394531 172.882812 35.0625 173 34.765625 L 174.46875 31.042969 C 174.5 30.96875 174.582031 30.925781 174.660156 30.949219 C 176.5 31.457031 178.117188 31.710938 179.507812 31.710938 C 180.875 31.710938 181.761719 31.53125 182.152344 31.191406 C 182.222656 31.128906 182.328125 31.144531 182.382812 31.21875 L 184.6875 34.382812 C 184.796875 34.539062 184.828125 34.738281 184.765625 34.917969 C 184.65625 35.214844 184.328125 35.371094 184.027344 35.265625 L 180.039062 33.84375 C 180.046875 33.90625 180.054688 33.976562 180.0625 34.054688 C 180.101562 34.394531 180.160156 34.925781 180.238281 35.640625 C 180.398438 37.074219 180.632812 39.253906 180.945312 42.1875 C 180.957031 42.273438 180.894531 42.351562 180.808594 42.363281 C 180.71875 42.371094 180.644531 42.308594 180.632812 42.222656 C 180.320312 39.289062 180.085938 37.105469 179.929688 35.675781 C 179.847656 34.960938 179.789062 34.429688 179.75 34.089844 C 179.742188 34 179.730469 33.921875 179.722656 33.859375 Z M 179.71875 32.023438 C 179.753906 32.160156 179.789062 32.308594 179.820312 32.472656 C 179.871094 32.738281 179.910156 32.996094 179.957031 33.335938 L 179.976562 33.480469 C 179.980469 33.484375 179.980469 33.488281 179.980469 33.492188 L 184.132812 34.96875 C 184.269531 35.019531 184.417969 34.949219 184.46875 34.8125 C 184.496094 34.730469 184.484375 34.640625 184.433594 34.570312 L 182.222656 31.53125 C 181.75 31.847656 180.917969 32.007812 179.71875 32.023438 Z M 179.671875 33.546875 C 179.667969 33.539062 179.667969 33.53125 179.667969 33.523438 L 179.648438 33.378906 C 179.601562 33.046875 179.5625 32.792969 179.511719 32.53125 C 179.472656 32.339844 179.4375 32.171875 179.394531 32.023438 C 178.035156 32.011719 176.476562 31.765625 174.710938 31.289062 L 173.292969 34.878906 C 173.238281 35.015625 173.304688 35.167969 173.441406 35.21875 C 173.492188 35.242188 173.550781 35.246094 173.605469 35.230469 Z M 179.671875 33.546875 " fill-opacity="1" fill-rule="nonzero"/><path fill="#ffffff" d="M 158.292969 67.171875 C 166.976562 53.3125 171.964844 45.664062 173.257812 44.226562 C 174.265625 43.105469 175.992188 43.011719 177.113281 44.019531 C 177.953125 44.777344 178.242188 45.96875 177.84375 47.023438 L 174.722656 55.226562 " fill-opacity="1" fill-rule="evenodd"/><path fill="#263e4b" d="M 158.390625 67.328125 C 167.0625 53.488281 172.054688 45.832031 173.335938 44.40625 C 174.289062 43.347656 175.914062 43.261719 176.972656 44.214844 C 177.765625 44.925781 178.035156 46.050781 177.65625 47.046875 L 174.539062 55.246094 L 174.832031 55.355469 L 177.949219 47.160156 C 178.375 46.042969 178.070312 44.777344 177.183594 43.980469 C 175.996094 42.910156 174.171875 43.007812 173.101562 44.195312 C 171.800781 45.644531 166.816406 53.289062 158.125 67.160156 Z M 158.390625 67.328125 " fill-opacity="1" fill-rule="nonzero"/><path fill="#263e4b" d="M 177.6875 16.230469 C 177.445312 16.15625 177.1875 16.117188 176.917969 16.117188 C 175.417969 16.117188 174.199219 17.339844 174.199219 18.84375 C 174.199219 20.121094 175.078125 21.191406 176.261719 21.488281 L 176.140625 24.023438 C 176.109375 24.699219 175.542969 25.226562 174.867188 25.214844 L 171.640625 25.171875 C 171.433594 25.167969 171.226562 25.136719 171.027344 25.078125 C 169.808594 24.722656 169.105469 23.445312 169.460938 22.226562 L 173.011719 10.042969 L 173.429688 10.042969 L 173.433594 10.039062 L 173.925781 10.042969 L 175.765625 10.042969 L 175.769531 10.050781 L 180.144531 10.070312 C 179.640625 12.398438 179.1875 13.949219 178.785156 14.734375 C 178.496094 15.292969 178.132812 15.789062 177.6875 16.230469 Z M 192.5625 10.042969 C 192.972656 11.789062 192.335938 12.660156 190.648438 12.660156 C 188.960938 12.660156 186.429688 11.789062 183.054688 10.042969 Z M 192.5625 10.042969 " fill-opacity="1" fill-rule="evenodd"/><path fill="#ffffff" d="M 153.832031 70.828125 L 168.039062 58.167969 C 170.109375 56.324219 172.792969 55.320312 175.5625 55.355469 L 191.742188 55.566406 C 193.949219 55.59375 195.757812 57.335938 195.863281 59.542969 C 195.964844 61.632812 194.355469 63.410156 192.265625 63.511719 C 192.21875 63.515625 192.171875 63.515625 192.121094 63.515625 L 178.425781 63.667969 C 177.585938 63.675781 176.914062 64.363281 176.925781 65.199219 C 176.925781 65.199219 176.925781 65.199219 176.925781 65.203125 C 176.933594 66.050781 177.613281 66.738281 178.460938 66.761719 L 192.601562 67.148438 C 194.527344 67.203125 196.0625 68.773438 196.074219 70.703125 C 196.082031 72.601562 194.550781 74.148438 192.652344 74.160156 C 192.648438 74.160156 192.640625 74.160156 192.636719 74.160156 L 179.15625 74.160156 C 178.328125 74.160156 177.65625 74.832031 177.65625 75.660156 C 177.65625 75.667969 177.65625 75.671875 177.65625 75.679688 C 177.667969 76.589844 178.25 77.398438 179.109375 77.695312 L 187.738281 80.691406 C 189.234375 81.210938 190.023438 82.839844 189.503906 84.335938 C 189.484375 84.402344 189.457031 84.464844 189.429688 84.53125 C 188.738281 86.132812 186.9375 86.9375 185.285156 86.382812 L 171.257812 81.703125 L 163.667969 86.769531 C 159.773438 89.367188 154.511719 88.316406 151.914062 84.425781 C 151.671875 84.058594 151.453125 83.671875 151.269531 83.273438 C 150.609375 81.84375 150.402344 79.792969 150.652344 77.125 C 150.878906 74.699219 152.015625 72.449219 153.832031 70.828125 Z M 153.832031 70.828125 " fill-opacity="1" fill-rule="evenodd"/><path fill="#263e4b" d="M 153.265625 85.707031 L 155.914062 84.003906 C 155.003906 83.136719 154.273438 82.070312 153.652344 80.828125 C 152.753906 79.03125 153.050781 75.59375 154.519531 70.496094 L 154.019531 70.941406 C 152.226562 72.539062 151.109375 74.757812 150.886719 77.148438 C 150.640625 79.789062 150.847656 81.808594 151.492188 83.207031 C 151.671875 83.597656 151.882812 83.972656 152.121094 84.332031 C 152.460938 84.839844 152.84375 85.300781 153.265625 85.707031 Z M 153.503906 85.929688 C 156.261719 88.394531 160.433594 88.789062 163.65625 86.640625 L 164.386719 86.152344 C 161.476562 86.679688 159.109375 86.25 157.214844 85.03125 C 156.835938 84.789062 156.484375 84.519531 156.152344 84.226562 Z M 154.6875 69.925781 C 154.6875 69.925781 154.6875 69.925781 154.6875 69.921875 C 154.707031 69.863281 154.757812 69.824219 154.816406 69.8125 L 168.019531 58.046875 C 170.113281 56.179688 172.832031 55.164062 175.640625 55.199219 L 191.828125 55.40625 C 194.117188 55.4375 195.988281 57.246094 196.101562 59.535156 C 196.207031 61.714844 194.53125 63.5625 192.355469 63.667969 C 192.308594 63.671875 192.257812 63.671875 192.207031 63.671875 L 178.503906 63.824219 C 177.753906 63.832031 177.152344 64.445312 177.160156 65.199219 C 177.171875 65.964844 177.78125 66.585938 178.542969 66.605469 L 192.6875 66.992188 C 194.695312 67.046875 196.300781 68.6875 196.3125 70.699219 C 196.320312 72.6875 194.722656 74.304688 192.738281 74.316406 L 179.238281 74.316406 C 178.496094 74.316406 177.894531 74.917969 177.894531 75.660156 C 177.894531 75.667969 177.894531 75.667969 177.894531 75.675781 C 177.90625 76.523438 178.441406 77.269531 179.242188 77.546875 L 187.875 80.542969 C 189.445312 81.089844 190.28125 82.808594 189.734375 84.382812 C 189.710938 84.457031 189.683594 84.523438 189.652344 84.59375 C 188.929688 86.269531 187.046875 87.109375 185.316406 86.535156 L 171.359375 81.875 L 163.828125 86.902344 C 159.863281 89.550781 154.503906 88.476562 151.859375 84.507812 C 151.613281 84.132812 151.394531 83.746094 151.207031 83.339844 C 150.535156 81.882812 150.324219 79.808594 150.574219 77.117188 C 150.804688 74.648438 151.960938 72.359375 153.8125 70.707031 Z M 154.964844 70.101562 C 153.394531 75.394531 153.054688 78.929688 153.933594 80.6875 C 154.800781 82.425781 155.894531 83.808594 157.382812 84.765625 C 159.324219 86.011719 161.777344 86.402344 164.851562 85.738281 C 164.894531 85.730469 164.9375 85.738281 164.972656 85.761719 L 171.3125 81.527344 L 185.417969 86.234375 C 186.992188 86.761719 188.707031 85.996094 189.363281 84.46875 C 189.390625 84.40625 189.417969 84.34375 189.4375 84.28125 C 189.925781 82.871094 189.179688 81.332031 187.769531 80.839844 L 179.136719 77.84375 C 178.214844 77.523438 177.59375 76.65625 177.582031 75.679688 C 177.582031 75.671875 177.582031 75.671875 177.582031 75.660156 C 177.582031 74.746094 178.320312 74.003906 179.238281 74.003906 L 192.734375 74.003906 C 194.546875 73.992188 196.007812 72.515625 195.996094 70.703125 C 195.988281 68.859375 194.519531 67.359375 192.679688 67.308594 L 178.535156 66.917969 C 177.605469 66.894531 176.859375 66.136719 176.847656 65.203125 C 176.839844 64.277344 177.578125 63.519531 178.503906 63.507812 L 192.207031 63.359375 C 192.25 63.359375 192.296875 63.355469 192.34375 63.355469 C 194.34375 63.257812 195.886719 61.554688 195.789062 59.550781 C 195.683594 57.425781 193.949219 55.75 191.824219 55.722656 L 175.636719 55.515625 C 172.90625 55.480469 170.265625 56.464844 168.226562 58.28125 Z M 154.964844 70.101562 " fill-opacity="1" fill-rule="nonzero"/><path fill="#ffffff" d="M 224.648438 59.222656 L 224.652344 59.648438 C 224.664062 61.820312 226.425781 63.578125 228.597656 63.578125 L 231.578125 63.578125 C 229.117188 63.765625 227.511719 64.570312 226.761719 65.988281 C 225.585938 68.21875 226.4375 70.984375 228.667969 72.164062 C 229.328125 72.511719 230.058594 72.691406 230.804688 72.691406 L 232.101562 72.691406 L 231.746094 72.867188 C 229.253906 74.089844 228.226562 77.097656 229.449219 79.585938 C 229.523438 79.738281 229.605469 79.882812 229.691406 80.027344 C 230.882812 81.683594 233.191406 82.0625 234.847656 80.871094 C 234.957031 80.792969 235.0625 80.707031 235.164062 80.617188 L 237.476562 78.535156 C 238.75 77.386719 239.351562 75.664062 239.066406 73.96875 C 239.046875 73.847656 239.023438 73.734375 239.007812 73.636719 C 238.886719 73.023438 238.464844 72.117188 237.75 70.910156 C 238.238281 69.933594 238.378906 68.746094 238.167969 67.347656 C 237.960938 65.953125 237.367188 64.730469 236.390625 63.683594 C 236.867188 62.464844 236.933594 61.101562 236.597656 59.597656 C 236.464844 59 236.28125 58.492188 236.046875 58.074219 C 235.613281 57.304688 234.835938 56.792969 233.957031 56.699219 L 228.117188 56.085938 C 226.394531 55.90625 224.847656 57.15625 224.667969 58.878906 C 224.65625 58.996094 224.648438 59.109375 224.648438 59.222656 Z M 224.648438 59.222656 " fill-opacity="1" fill-rule="evenodd"/><path fill="#263e4b" d="M 232.144531 72.429688 L 237.707031 70.675781 C 238.15625 69.742188 238.28125 68.605469 238.082031 67.269531 C 237.878906 65.90625 237.300781 64.714844 236.351562 63.695312 L 236.351562 63.734375 L 231.527344 63.640625 C 229.1875 63.84375 227.675781 64.617188 226.96875 65.957031 C 225.832031 68.109375 226.652344 70.78125 228.804688 71.917969 C 229.441406 72.253906 230.148438 72.429688 230.867188 72.429688 Z M 232.226562 72.734375 L 231.878906 72.902344 C 229.472656 74.085938 228.476562 77 229.65625 79.410156 C 229.730469 79.554688 229.808594 79.699219 229.886719 79.828125 C 231.027344 81.417969 233.238281 81.78125 234.824219 80.636719 C 234.929688 80.5625 235.03125 80.480469 235.128906 80.394531 L 237.4375 78.316406 C 238.671875 77.199219 239.253906 75.527344 238.976562 73.882812 C 238.957031 73.765625 238.9375 73.65625 238.917969 73.5625 C 238.808594 72.988281 238.417969 72.132812 237.746094 70.992188 Z M 231.644531 63.328125 L 236.351562 63.421875 C 236.777344 62.257812 236.835938 60.960938 236.515625 59.527344 C 236.382812 58.945312 236.207031 58.453125 235.976562 58.046875 C 235.570312 57.320312 234.835938 56.839844 234.011719 56.75 L 228.167969 56.136719 C 226.53125 55.964844 225.0625 57.15625 224.890625 58.796875 C 224.878906 58.902344 224.875 59.011719 224.875 59.121094 L 224.878906 59.542969 C 224.886719 61.628906 226.578125 63.316406 228.664062 63.316406 L 231.644531 63.316406 Z M 226.691406 65.808594 C 227.25 64.75 228.261719 64.027344 229.71875 63.628906 L 228.664062 63.628906 C 226.40625 63.628906 224.574219 61.804688 224.5625 59.542969 L 224.5625 59.121094 C 224.5625 59.003906 224.566406 58.882812 224.578125 58.761719 C 224.769531 56.949219 226.390625 55.636719 228.203125 55.824219 L 234.042969 56.4375 C 234.972656 56.535156 235.792969 57.078125 236.253906 57.894531 C 236.496094 58.328125 236.683594 58.847656 236.820312 59.457031 C 237.15625 60.953125 237.09375 62.316406 236.640625 63.542969 C 237.597656 64.597656 238.183594 65.824219 238.390625 67.222656 C 238.601562 68.613281 238.46875 69.804688 237.996094 70.800781 C 238.695312 71.984375 239.105469 72.878906 239.226562 73.5 C 239.246094 73.601562 239.265625 73.710938 239.289062 73.832031 C 239.582031 75.582031 238.964844 77.363281 237.644531 78.550781 L 235.335938 80.628906 C 235.234375 80.722656 235.125 80.8125 235.007812 80.894531 C 233.28125 82.136719 230.875 81.742188 229.628906 80.003906 C 229.535156 79.855469 229.453125 79.703125 229.375 79.546875 C 228.15625 77.0625 229.113281 74.074219 231.507812 72.746094 L 230.867188 72.746094 C 230.097656 72.746094 229.339844 72.558594 228.660156 72.195312 C 226.355469 70.976562 225.472656 68.117188 226.691406 65.808594 Z M 228.65625 56.972656 C 228.746094 56.972656 228.816406 57.042969 228.816406 57.128906 C 228.820312 57.214844 228.75 57.289062 228.664062 57.289062 C 227.503906 57.304688 226.992188 57.996094 227.089844 59.445312 C 227.191406 60.902344 227.707031 61.554688 228.648438 61.492188 C 228.738281 61.484375 228.8125 61.550781 228.816406 61.636719 C 228.824219 61.722656 228.757812 61.796875 228.671875 61.804688 C 227.523438 61.882812 226.886719 61.078125 226.777344 59.46875 C 226.667969 57.851562 227.304688 56.992188 228.65625 56.972656 Z M 230.15625 65.9375 C 230.246094 65.929688 230.320312 65.992188 230.328125 66.078125 C 230.335938 66.164062 230.269531 66.242188 230.183594 66.25 C 229.03125 66.347656 228.566406 67.074219 228.769531 68.511719 C 228.96875 69.957031 229.527344 70.574219 230.464844 70.441406 C 230.550781 70.429688 230.628906 70.488281 230.644531 70.574219 C 230.65625 70.660156 230.59375 70.742188 230.507812 70.753906 C 229.371094 70.914062 228.679688 70.152344 228.457031 68.554688 C 228.234375 66.949219 228.808594 66.050781 230.15625 65.9375 Z M 232.359375 75.101562 C 232.441406 75.082031 232.527344 75.136719 232.542969 75.222656 C 232.5625 75.308594 232.507812 75.390625 232.421875 75.40625 C 231.289062 75.644531 230.917969 76.421875 231.292969 77.824219 C 231.667969 79.238281 232.296875 79.78125 233.210938 79.535156 C 233.296875 79.511719 233.382812 79.5625 233.40625 79.644531 C 233.425781 79.730469 233.378906 79.816406 233.292969 79.839844 C 232.183594 80.136719 231.402344 79.464844 230.988281 77.90625 C 230.570312 76.339844 231.03125 75.378906 232.359375 75.101562 Z M 232.359375 75.101562 " fill-opacity="1" fill-rule="nonzero"/><path fill="#ffffff" d="M 96.394531 103.21875 L 101.472656 156.289062 L 104.089844 156.289062 L 101.597656 102.710938 C 101.53125 101.304688 100.339844 100.214844 98.933594 100.28125 C 98.890625 100.285156 98.847656 100.285156 98.804688 100.289062 C 97.332031 100.433594 96.25 101.746094 96.394531 103.21875 Z M 96.394531 103.21875 " fill-opacity="1" fill-rule="evenodd"/><path fill="#263e4b" d="M 96.238281 103.136719 L 101.332031 156.347656 L 104.253906 156.347656 L 101.753906 102.601562 C 101.6875 101.109375 100.417969 99.957031 98.925781 100.027344 C 98.882812 100.027344 98.835938 100.03125 98.789062 100.035156 C 97.230469 100.1875 96.085938 101.574219 96.238281 103.136719 Z M 101.617188 156.035156 L 96.550781 103.105469 C 96.417969 101.71875 97.433594 100.484375 98.820312 100.347656 C 98.859375 100.34375 98.902344 100.339844 98.941406 100.339844 C 100.261719 100.277344 101.378906 101.296875 101.441406 102.617188 L 103.925781 156.035156 Z M 101.617188 156.035156 " fill-opacity="1" fill-rule="nonzero"/><path fill="#263e4b" d="M 100.191406 157.824219 C 100.160156 157.902344 100.066406 157.941406 99.988281 157.910156 C 99.90625 157.875 99.867188 157.785156 99.902344 157.703125 C 101.972656 152.640625 103.175781 149.101562 103.515625 147.097656 C 103.53125 147.011719 103.613281 146.953125 103.699219 146.96875 C 103.78125 146.984375 103.839844 147.0625 103.824219 147.148438 C 103.480469 149.183594 102.269531 152.738281 100.191406 157.824219 Z M 103.402344 140.105469 C 103.429688 140.1875 103.386719 140.277344 103.300781 140.304688 C 103.21875 140.332031 103.132812 140.285156 103.105469 140.203125 C 102.183594 137.457031 100.320312 135.109375 97.511719 133.167969 C 97.441406 133.117188 97.425781 133.019531 97.472656 132.949219 C 97.523438 132.878906 97.621094 132.859375 97.691406 132.910156 C 100.550781 134.890625 102.457031 137.289062 103.402344 140.105469 Z M 101.148438 151.234375 C 101.113281 151.3125 101.019531 151.347656 100.941406 151.3125 C 100.863281 151.277344 100.828125 151.183594 100.863281 151.105469 C 101.144531 150.488281 101.332031 149.984375 101.425781 149.597656 C 102.730469 144.285156 101.921875 140.402344 99.613281 137.644531 C 99.558594 137.578125 99.566406 137.480469 99.636719 137.421875 C 99.703125 137.367188 99.800781 137.375 99.855469 137.441406 C 102.226562 140.28125 103.058594 144.265625 101.730469 149.671875 C 101.632812 150.082031 101.4375 150.601562 101.148438 151.234375 Z M 97.449219 100.625 C 97.4375 100.539062 97.5 100.460938 97.585938 100.449219 C 97.671875 100.4375 97.75 100.5 97.761719 100.585938 C 99.121094 111.25 104.226562 116.890625 113.097656 117.550781 C 113.183594 117.558594 113.246094 117.632812 113.242188 117.71875 C 113.234375 117.804688 113.160156 117.871094 113.074219 117.863281 C 104.042969 117.191406 98.828125 111.429688 97.449219 100.625 Z M 99.75 100.464844 C 99.738281 100.378906 99.804688 100.300781 99.890625 100.292969 C 99.976562 100.285156 100.050781 100.347656 100.0625 100.433594 C 100.953125 109.824219 105.195312 114.71875 112.820312 115.28125 C 112.90625 115.285156 112.972656 115.363281 112.964844 115.449219 C 112.960938 115.535156 112.886719 115.601562 112.796875 115.59375 C 105.007812 115.019531 100.652344 109.996094 99.75 100.464844 Z M 99.75 100.464844 " fill-opacity="1" fill-rule="nonzero"/><path fill="#263e4b" d="M 183.300781 17.167969 C 182.898438 17.167969 182.570312 16.789062 182.570312 16.328125 C 182.570312 15.867188 182.898438 15.488281 183.300781 15.488281 C 183.707031 15.488281 184.035156 15.867188 184.035156 16.328125 C 184.035156 16.789062 183.707031 17.167969 183.300781 17.167969 Z M 189.789062 17.167969 C 189.382812 17.167969 189.054688 16.789062 189.054688 16.328125 C 189.054688 15.867188 189.382812 15.488281 189.789062 15.488281 C 190.195312 15.488281 190.519531 15.867188 190.519531 16.328125 C 190.519531 16.789062 190.195312 17.167969 189.789062 17.167969 Z M 181.851562 15.589844 C 181.796875 15.65625 181.695312 15.664062 181.628906 15.609375 C 181.5625 15.554688 181.554688 15.453125 181.613281 15.386719 C 181.636719 15.359375 181.683594 15.308594 181.746094 15.246094 C 181.847656 15.144531 181.964844 15.042969 182.09375 14.945312 C 182.464844 14.664062 182.855469 14.496094 183.246094 14.496094 C 183.816406 14.496094 184.125 14.628906 184.441406 14.976562 C 184.492188 15.03125 184.539062 15.089844 184.605469 15.171875 C 184.625 15.195312 184.746094 15.34375 184.785156 15.390625 C 184.839844 15.457031 184.828125 15.558594 184.761719 15.613281 C 184.695312 15.667969 184.59375 15.65625 184.539062 15.589844 C 184.5 15.542969 184.382812 15.390625 184.363281 15.371094 C 184.300781 15.292969 184.253906 15.238281 184.207031 15.1875 C 183.953125 14.90625 183.726562 14.808594 183.246094 14.808594 C 182.933594 14.808594 182.605469 14.953125 182.28125 15.195312 C 182.167969 15.285156 182.058594 15.378906 181.964844 15.46875 C 181.910156 15.527344 181.871094 15.570312 181.851562 15.589844 Z M 188.550781 15.585938 C 188.5 15.65625 188.398438 15.667969 188.332031 15.613281 C 188.261719 15.558594 188.25 15.460938 188.304688 15.394531 C 188.328125 15.363281 188.371094 15.3125 188.429688 15.25 C 188.523438 15.148438 188.632812 15.046875 188.753906 14.949219 C 189.101562 14.667969 189.464844 14.496094 189.835938 14.496094 C 190.371094 14.496094 190.664062 14.632812 190.957031 14.980469 C 191.003906 15.035156 191.050781 15.09375 191.109375 15.175781 C 191.128906 15.199219 191.238281 15.347656 191.273438 15.394531 C 191.328125 15.464844 191.3125 15.5625 191.242188 15.617188 C 191.175781 15.667969 191.078125 15.652344 191.023438 15.585938 C 190.988281 15.539062 190.878906 15.386719 190.859375 15.363281 C 190.800781 15.289062 190.757812 15.230469 190.714844 15.183594 C 190.484375 14.90625 190.277344 14.808594 189.835938 14.808594 C 189.550781 14.808594 189.246094 14.953125 188.949219 15.191406 C 188.84375 15.28125 188.746094 15.375 188.65625 15.464844 C 188.605469 15.523438 188.570312 15.5625 188.550781 15.585938 Z M 187.449219 18.476562 L 188.6875 18.476562 L 187.304688 14.917969 C 187.273438 14.835938 187.3125 14.746094 187.394531 14.714844 C 187.472656 14.683594 187.566406 14.722656 187.597656 14.804688 L 189.0625 18.574219 C 189.101562 18.679688 189.027344 18.789062 188.914062 18.789062 L 187.449219 18.789062 C 187.363281 18.789062 187.292969 18.71875 187.292969 18.632812 C 187.292969 18.546875 187.363281 18.476562 187.449219 18.476562 Z M 186.6875 20.65625 C 186.609375 20.699219 186.515625 20.667969 186.476562 20.59375 C 186.433594 20.515625 186.464844 20.421875 186.539062 20.378906 C 187.109375 20.074219 187.65625 20.074219 188.160156 20.382812 C 188.234375 20.429688 188.257812 20.527344 188.210938 20.601562 C 188.167969 20.675781 188.070312 20.699219 187.996094 20.652344 C 187.589844 20.402344 187.160156 20.402344 186.6875 20.65625 Z M 186.6875 20.65625 " fill-opacity="1" fill-rule="evenodd"/><path fill="#ffffff" d="M 71.234375 112.703125 L 79.605469 138.582031 L 120.9375 133.027344 L 120.9375 102.75 L 80.105469 110.929688 L 79.605469 114.484375 L 76.925781 111.5625 Z M 71.234375 112.703125 " fill-opacity="1" fill-rule="evenodd"/><path fill="#263e4b" d="M 77.042969 111.363281 C 77.003906 111.320312 76.949219 111.304688 76.894531 111.316406 L 71.203125 112.453125 C 71.109375 112.472656 71.054688 112.566406 71.085938 112.65625 L 79.457031 138.535156 C 79.480469 138.605469 79.550781 138.652344 79.625 138.640625 L 120.957031 133.089844 C 121.035156 133.078125 121.09375 133.011719 121.09375 132.933594 L 121.09375 102.65625 C 121.09375 102.554688 121.003906 102.480469 120.90625 102.5 L 80.074219 110.679688 C 80.007812 110.691406 79.957031 110.746094 79.949219 110.808594 L 79.496094 114.039062 Z M 76.871094 111.640625 L 79.488281 114.496094 C 79.578125 114.59375 79.742188 114.542969 79.761719 114.410156 L 80.246094 110.964844 L 120.78125 102.847656 L 120.78125 132.796875 L 79.714844 138.3125 L 71.4375 112.726562 Z M 76.871094 111.640625 " fill-opacity="1" fill-rule="nonzero"/><g clip-path="url(#a8ffbc0453)"><path fill="#ffffff" d="M 62.023438 184.738281 L 75.941406 184.738281 C 81.425781 170.453125 86.457031 161.535156 91.042969 157.984375 C 91.3125 157.773438 89.695312 155.445312 86.195312 151.003906 C 88.464844 152.800781 90.035156 153.953125 90.90625 154.460938 C 91.316406 154.699219 91.351562 151.277344 91.011719 144.191406 L 94.757812 155.550781 C 96.183594 154.832031 97.273438 154.328125 98.019531 154.042969 C 108.554688 149.992188 117.203125 160.222656 123.972656 184.738281 L 265.441406 184.738281 " fill-opacity="1" fill-rule="evenodd"/></g><g clip-path="url(#339ee8b3ff)"><path fill="#263e4b" d="M 90.828125 154.546875 C 90.976562 154.632812 91.109375 154.550781 91.183594 154.394531 C 91.230469 154.292969 91.269531 154.136719 91.296875 153.925781 C 91.355469 153.519531 91.386719 152.886719 91.394531 152.023438 C 91.410156 150.5 91.351562 148.25 91.21875 145.28125 L 94.609375 155.546875 C 94.636719 155.640625 94.742188 155.683594 94.828125 155.640625 C 96.25 154.925781 97.332031 154.421875 98.078125 154.136719 C 108.488281 150.132812 117.074219 160.292969 123.820312 184.730469 C 123.839844 184.796875 123.902344 184.84375 123.972656 184.84375 L 265.441406 184.84375 C 265.53125 184.84375 265.601562 184.773438 265.601562 184.6875 C 265.601562 184.601562 265.53125 184.53125 265.441406 184.53125 L 124.089844 184.53125 C 117.308594 160.019531 108.605469 149.753906 97.964844 153.84375 C 97.238281 154.125 96.199219 154.601562 94.847656 155.277344 L 91.160156 144.09375 C 91.101562 143.921875 90.84375 143.96875 90.851562 144.152344 C 91.023438 147.691406 91.097656 150.3125 91.082031 152.023438 C 91.074219 152.871094 91.042969 153.492188 90.988281 153.882812 C 90.964844 154.042969 90.9375 154.160156 90.910156 154.230469 C 90.035156 153.707031 88.496094 152.574219 86.292969 150.832031 C 86.148438 150.714844 85.957031 150.902344 86.074219 151.050781 C 87.820312 153.269531 89.097656 154.960938 89.902344 156.121094 C 90.304688 156.695312 90.585938 157.140625 90.75 157.453125 C 90.832031 157.601562 90.882812 157.71875 90.902344 157.796875 C 90.90625 157.8125 90.910156 157.824219 90.910156 157.835938 C 86.316406 161.417969 81.296875 170.3125 75.835938 184.53125 L 62.023438 184.53125 C 61.9375 184.53125 61.867188 184.601562 61.867188 184.6875 C 61.867188 184.773438 61.9375 184.84375 62.023438 184.84375 L 75.941406 184.84375 C 76.007812 184.84375 76.066406 184.804688 76.089844 184.742188 C 81.5625 170.484375 86.582031 161.585938 91.136719 158.058594 C 91.394531 157.855469 91.078125 157.261719 90.160156 155.941406 C 89.480469 154.960938 88.46875 153.605469 87.121094 151.878906 C 88.851562 153.226562 90.085938 154.113281 90.828125 154.546875 Z M 90.828125 154.546875 " fill-opacity="1" fill-rule="nonzero"/></g><path fill="#263e4b" d="M 184.917969 0.0351562 L 178.972656 0.0351562 C 176.304688 0.0351562 174.136719 2.191406 174.109375 4.859375 L 170.578125 9.953125 C 170.507812 10.058594 170.582031 10.199219 170.707031 10.199219 L 194.566406 10.199219 C 194.703125 10.199219 194.773438 10.03125 194.679688 9.933594 L 189.574219 4.636719 C 189.539062 2.089844 187.46875 0.0351562 184.917969 0.0351562 Z M 174.394531 5 C 174.414062 4.972656 174.421875 4.941406 174.421875 4.910156 C 174.421875 2.390625 176.460938 0.351562 178.972656 0.351562 L 184.917969 0.351562 C 187.316406 0.351562 189.261719 2.296875 189.261719 4.699219 C 189.261719 4.738281 189.277344 4.777344 189.304688 4.808594 L 194.195312 9.886719 L 171.007812 9.886719 Z M 174.394531 5 " fill-opacity="1" fill-rule="nonzero"/><path fill="#bad9ea" d="M 189.355469 4.804688 L 174.199219 5.011719 L 173.152344 6.585938 L 191.046875 6.585938 Z M 189.355469 4.804688 " fill-opacity="1" fill-rule="evenodd"/><path fill="#263e4b" d="M 189.457031 4.542969 L 174.300781 4.75 C 174.25 4.753906 174.199219 4.777344 174.171875 4.820312 L 173.125 6.394531 C 173.054688 6.496094 173.128906 6.636719 173.257812 6.636719 L 191.148438 6.636719 C 191.289062 6.636719 191.359375 6.472656 191.261719 6.371094 L 189.570312 4.589844 C 189.542969 4.558594 189.5 4.542969 189.457031 4.542969 Z M 190.785156 6.324219 L 173.550781 6.324219 L 174.386719 5.066406 L 189.390625 4.855469 Z M 190.785156 6.324219 " fill-opacity="1" fill-rule="nonzero"/><g clip-path="url(#61fded3ac4)"><path fill="#ffffff" d="M 146.886719 180.601562 L 145.109375 189.191406 L 178.800781 189.191406 C 177.257812 185.929688 175.441406 183.660156 173.359375 182.382812 C 171.277344 181.105469 167.476562 180.511719 161.957031 180.601562 L 164.78125 165.933594 L 147.828125 166.039062 L 147.621094 177.039062 Z M 146.886719 180.601562 " fill-opacity="1" fill-rule="evenodd"/></g><g clip-path="url(#bba9e05a80)"><path fill="#ffffff" d="M 192.40625 179.34375 L 192.40625 189.296875 L 196.589844 189.191406 L 223.378906 189.191406 C 221.832031 185.929688 220.019531 183.660156 217.9375 182.382812 C 215.855469 181.105469 212.050781 180.511719 206.53125 180.601562 L 209.148438 166.167969 L 190.835938 166.039062 L 192.195312 177.039062 Z M 192.40625 179.34375 " fill-opacity="1" fill-rule="evenodd"/></g><path fill="#bad9ea" d="M 147.621094 177.144531 C 149.222656 177.40625 150.476562 178.417969 151.386719 180.183594 C 152.296875 181.949219 152.785156 184.324219 152.851562 187.308594 L 145.527344 187.203125 " fill-opacity="1" fill-rule="evenodd"/><path fill="#bad9ea" d="M 192.40625 177.144531 C 195.261719 177.824219 197.144531 179.046875 198.054688 180.8125 C 198.964844 182.578125 199.382812 184.742188 199.3125 187.308594 L 192.40625 187.203125 Z M 192.40625 177.144531 " fill-opacity="1" fill-rule="evenodd"/><g clip-path="url(#d0a73761b4)"><path fill="#263e4b" d="M 152.824219 165.957031 L 153.988281 157.917969 L 151.492188 157.917969 L 151.492188 157.605469 L 154.035156 157.605469 L 154.660156 153.308594 L 152.433594 153.308594 L 152.433594 152.996094 L 164.570312 152.996094 L 164.570312 153.308594 L 162.136719 153.308594 L 161.34375 157.605469 L 163.628906 157.605469 L 163.628906 157.917969 L 161.285156 157.917969 L 159.804688 165.914062 L 164.972656 165.882812 L 162.65625 177.898438 L 163.457031 175.707031 C 163.488281 175.613281 163.53125 175.523438 163.582031 175.441406 C 164.035156 174.667969 165.027344 174.40625 165.800781 174.863281 C 165.933594 174.9375 166.050781 175.035156 166.148438 175.148438 C 166.675781 175.742188 166.621094 176.648438 166.027344 177.171875 L 162.308594 180.464844 C 163.007812 180.292969 164.726562 179.851562 167.253906 179.191406 C 167.335938 179.171875 167.421875 179.222656 167.445312 179.304688 C 167.464844 179.390625 167.414062 179.476562 167.332031 179.496094 C 165.492188 179.976562 164.164062 180.320312 163.289062 180.542969 C 168.121094 180.5625 171.503906 181.164062 173.441406 182.355469 C 175.554688 183.648438 177.386719 185.941406 178.945312 189.230469 L 179.050781 189.453125 L 144.914062 189.453125 L 146.734375 180.675781 L 147.464844 177.128906 L 147.675781 165.988281 Z M 153.140625 165.953125 L 156.179688 165.9375 L 157.40625 157.917969 L 154.308594 157.917969 Z M 156.496094 165.933594 L 159.484375 165.914062 L 160.964844 157.917969 L 157.722656 157.917969 Z M 162.089844 180.863281 C 162.074219 180.863281 162.0625 180.863281 162.046875 180.863281 L 158.507812 180.96875 C 158.421875 180.972656 158.347656 180.902344 158.34375 180.816406 C 158.34375 180.730469 158.410156 180.65625 158.496094 180.65625 L 161.660156 180.5625 L 157.832031 177.171875 C 157.238281 176.648438 157.183594 175.742188 157.707031 175.148438 C 157.808594 175.035156 157.925781 174.9375 158.054688 174.863281 C 158.828125 174.40625 159.824219 174.667969 160.277344 175.441406 C 160.328125 175.523438 160.371094 175.613281 160.402344 175.707031 L 161.929688 179.890625 L 161.976562 179.757812 L 164.589844 166.199219 L 147.984375 166.300781 L 147.777344 177.027344 C 151.039062 177.996094 152.90625 181.347656 153.007812 187.046875 L 177.414062 187.046875 C 176.179688 185.027344 174.800781 183.554688 173.277344 182.621094 C 171.246094 181.375 167.511719 180.785156 162.089844 180.863281 Z M 162.28125 179.839844 L 162.230469 180.117188 L 165.820312 176.9375 C 166.28125 176.527344 166.324219 175.820312 165.914062 175.355469 C 165.835938 175.265625 165.746094 175.191406 165.644531 175.132812 C 165.019531 174.765625 164.21875 174.976562 163.851562 175.597656 C 163.8125 175.667969 163.777344 175.738281 163.75 175.8125 Z M 177.601562 187.359375 L 145.671875 187.359375 L 145.300781 189.140625 L 178.554688 189.140625 C 178.246094 188.507812 177.929688 187.914062 177.601562 187.359375 Z M 145.734375 187.046875 L 152.691406 187.046875 C 152.59375 181.503906 150.808594 178.285156 147.738281 177.34375 L 147.039062 180.738281 Z M 160.109375 175.8125 C 160.082031 175.738281 160.046875 175.667969 160.007812 175.597656 C 159.640625 174.976562 158.839844 174.765625 158.214844 175.132812 C 158.113281 175.191406 158.023438 175.265625 157.945312 175.355469 C 157.535156 175.820312 157.578125 176.527344 158.039062 176.9375 L 161.699219 180.179688 Z M 161.820312 153.308594 L 158.425781 153.308594 L 157.769531 157.605469 L 161.023438 157.605469 Z M 158.109375 153.308594 L 154.976562 153.308594 L 154.351562 157.605469 L 157.453125 157.605469 Z M 158.109375 153.308594 " fill-opacity="1" fill-rule="nonzero"/></g><path fill="#bad9ea" d="M 146.257812 54.148438 L 142.804688 54.148438 L 146.574219 48.175781 " fill-opacity="1" fill-rule="evenodd"/><g clip-path="url(#7951953524)"><path fill="#263e4b" d="M 194.511719 165.902344 L 193.355469 157.917969 L 191.359375 157.917969 L 191.359375 157.605469 L 193.3125 157.605469 L 192.6875 153.308594 L 190.730469 153.308594 L 190.730469 152.996094 L 203.390625 152.996094 L 203.390625 153.308594 L 200.6875 153.308594 L 201.121094 157.605469 L 203.496094 157.605469 L 203.496094 157.917969 L 201.152344 157.917969 L 201.960938 165.945312 L 209.332031 165.988281 L 206.945312 179.828125 L 208.449219 175.707031 C 208.484375 175.613281 208.527344 175.523438 208.574219 175.441406 C 209.027344 174.667969 210.023438 174.40625 210.796875 174.863281 C 210.925781 174.9375 211.042969 175.035156 211.144531 175.148438 C 211.667969 175.742188 211.613281 176.648438 211.023438 177.171875 L 207.46875 180.320312 C 208.355469 180.09375 209.839844 179.710938 211.828125 179.191406 C 211.914062 179.171875 212 179.222656 212.019531 179.304688 C 212.042969 179.390625 211.992188 179.476562 211.90625 179.496094 C 210.070312 179.976562 208.742188 180.320312 207.867188 180.542969 C 212.753906 180.554688 216.167969 181.15625 218.125 182.355469 C 220.234375 183.648438 222.066406 185.941406 223.625 189.230469 L 223.730469 189.453125 L 192.25 189.453125 L 192.246094 189.300781 L 192.144531 177.164062 L 190.65625 165.882812 Z M 194.832031 165.90625 L 197.984375 165.921875 L 197.273438 157.917969 L 193.671875 157.917969 Z M 198.296875 165.925781 L 201.644531 165.945312 L 200.835938 157.917969 L 197.589844 157.917969 Z M 192.4375 176.992188 C 196.984375 177.90625 199.328125 181.273438 199.464844 187.046875 L 222.09375 187.046875 C 220.859375 185.027344 219.480469 183.554688 217.960938 182.621094 C 215.933594 181.378906 212.21875 180.789062 206.828125 180.859375 C 206.808594 180.867188 206.785156 180.867188 206.765625 180.863281 C 206.726562 180.863281 206.691406 180.863281 206.652344 180.863281 C 206.644531 180.863281 206.632812 180.863281 206.621094 180.863281 L 203.082031 180.96875 C 202.996094 180.972656 202.921875 180.902344 202.921875 180.816406 C 202.917969 180.730469 202.988281 180.65625 203.074219 180.65625 L 206.234375 180.5625 L 202.40625 177.171875 C 201.816406 176.648438 201.761719 175.742188 202.285156 175.148438 C 202.386719 175.035156 202.503906 174.9375 202.632812 174.863281 C 203.40625 174.40625 204.402344 174.667969 204.855469 175.441406 C 204.902344 175.523438 204.945312 175.613281 204.980469 175.707031 L 206.582031 180.097656 L 208.960938 166.300781 L 191.015625 166.199219 Z M 192.457031 177.316406 L 192.542969 187.046875 L 199.152344 187.046875 C 199.019531 181.453125 196.792969 178.222656 192.457031 177.316406 Z M 222.285156 187.359375 L 192.546875 187.359375 L 192.5625 189.140625 L 223.234375 189.140625 C 222.925781 188.507812 222.609375 187.914062 222.285156 187.359375 Z M 204.683594 175.8125 C 204.65625 175.738281 204.625 175.667969 204.582031 175.597656 C 204.21875 174.976562 203.414062 174.765625 202.792969 175.132812 C 202.691406 175.191406 202.597656 175.265625 202.519531 175.355469 C 202.109375 175.820312 202.152344 176.527344 202.617188 176.9375 L 206.277344 180.179688 Z M 208.746094 175.8125 L 207.152344 180.179688 L 210.8125 176.9375 C 211.277344 176.527344 211.320312 175.820312 210.910156 175.355469 C 210.832031 175.265625 210.738281 175.191406 210.636719 175.132812 C 210.015625 174.765625 209.210938 174.976562 208.847656 175.597656 C 208.804688 175.667969 208.773438 175.738281 208.746094 175.8125 Z M 200.371094 153.308594 L 197.179688 153.308594 L 197.5625 157.605469 L 200.804688 157.605469 Z M 196.867188 153.308594 L 193.003906 153.308594 L 193.628906 157.605469 L 197.246094 157.605469 Z M 196.867188 153.308594 " fill-opacity="1" fill-rule="nonzero"/></g><path fill="#bad9ea" d="M 92.402344 123.910156 L 92.710938 125.859375 L 90.917969 126.144531 L 91.148438 127.609375 L 88.84375 127.972656 L 88.613281 126.511719 L 82.28125 127.511719 L 81.972656 125.5625 L 87.421875 118.992188 L 89.726562 118.625 L 90.609375 124.195312 Z M 84.457031 125.167969 L 88.300781 124.558594 L 87.785156 121.300781 Z M 98.820312 126.523438 C 95.257812 127.089844 93.304688 125.714844 92.832031 122.726562 C 92.363281 119.75 93.796875 117.851562 97.359375 117.285156 C 100.90625 116.722656 102.871094 118.097656 103.339844 121.058594 C 103.8125 124.039062 102.371094 125.960938 98.820312 126.523438 Z M 98.515625 124.585938 C 100.539062 124.265625 101.300781 123.105469 101.035156 121.425781 C 100.769531 119.757812 99.691406 118.902344 97.664062 119.222656 C 95.640625 119.542969 94.875 120.679688 95.140625 122.359375 C 95.40625 124.054688 96.488281 124.90625 98.515625 124.585938 Z M 114.703125 120.378906 L 115.011719 122.328125 L 113.21875 122.613281 L 113.449219 124.074219 L 111.140625 124.441406 L 110.910156 122.980469 L 104.578125 123.980469 L 104.269531 122.03125 L 109.71875 115.460938 L 112.027344 115.09375 L 112.910156 120.664062 Z M 106.757812 121.636719 L 110.601562 121.027344 L 110.085938 117.769531 Z M 106.757812 121.636719 " fill-opacity="1" fill-rule="nonzero"/><path fill="#263e4b" d="M 92.632812 123.628906 L 92.992188 125.890625 L 91.199219 126.171875 L 91.429688 127.636719 L 88.8125 128.050781 L 88.582031 126.585938 L 82.25 127.589844 L 81.90625 125.414062 L 87.4375 118.742188 L 89.957031 118.34375 L 90.839844 123.914062 Z M 90.578125 124.273438 L 89.695312 118.703125 L 87.605469 119.035156 L 82.238281 125.507812 L 82.511719 127.230469 L 88.84375 126.226562 L 89.074219 127.691406 L 91.070312 127.375 L 90.839844 125.914062 L 92.632812 125.628906 L 92.375 123.988281 Z M 84.160156 125.289062 L 87.988281 120.839844 L 88.582031 124.589844 Z M 88.222656 124.328125 L 87.785156 121.558594 L 84.957031 124.84375 Z M 98.945312 126.578125 C 95.363281 127.144531 93.273438 125.78125 92.777344 122.648438 C 92.285156 119.523438 93.851562 117.59375 97.433594 117.027344 C 101.003906 116.460938 103.105469 117.824219 103.597656 120.933594 C 104.089844 124.058594 102.515625 126.011719 98.945312 126.578125 Z M 98.898438 126.265625 C 102.300781 125.726562 103.753906 123.925781 103.285156 120.980469 C 102.824219 118.050781 100.886719 116.796875 97.484375 117.339844 C 94.0625 117.878906 92.621094 119.65625 93.089844 122.597656 C 93.558594 125.554688 95.480469 126.808594 98.898438 126.265625 Z M 98.640625 124.640625 C 96.59375 124.964844 95.375 124.121094 95.085938 122.28125 C 94.796875 120.453125 95.691406 119.289062 97.742188 118.964844 C 99.78125 118.640625 101.003906 119.480469 101.289062 121.296875 C 101.582031 123.132812 100.679688 124.316406 98.640625 124.640625 Z M 98.589844 124.328125 C 100.464844 124.03125 101.242188 123.003906 100.980469 121.347656 C 100.71875 119.703125 99.664062 118.980469 97.789062 119.277344 C 95.910156 119.574219 95.132812 120.582031 95.394531 122.230469 C 95.660156 123.898438 96.710938 124.625 98.589844 124.328125 Z M 114.933594 120.097656 L 115.289062 122.355469 L 113.496094 122.640625 L 113.726562 124.105469 L 111.113281 124.519531 L 110.878906 123.054688 L 104.550781 124.058594 L 104.203125 121.882812 L 109.738281 115.210938 L 112.257812 114.8125 L 113.140625 120.378906 Z M 112.878906 120.738281 L 111.996094 115.171875 L 109.902344 115.503906 L 104.535156 121.972656 L 104.808594 123.699219 L 111.140625 122.695312 L 111.371094 124.160156 L 113.371094 123.84375 L 113.136719 122.378906 L 114.933594 122.097656 L 114.671875 120.457031 Z M 106.457031 121.757812 L 110.289062 117.308594 L 110.882812 121.054688 Z M 110.523438 120.796875 L 110.082031 118.027344 L 107.253906 121.3125 Z M 110.523438 120.796875 " fill-opacity="1" fill-rule="nonzero"/><path fill="#263e4b" d="M 146.53125 48.007812 C 146.550781 47.9375 146.566406 47.871094 146.582031 47.808594 L 146.753906 44.1875 C 147.035156 38.179688 151.984375 33.457031 157.988281 33.457031 L 169.804688 33.457031 L 169.804688 33.773438 L 157.988281 33.773438 C 152.152344 33.773438 147.34375 38.363281 147.066406 44.203125 L 147.015625 45.253906 C 147.570312 43.125 148.640625 41.21875 150.226562 39.582031 C 152.621094 37.113281 155.582031 38.34375 159.046875 43.160156 C 159.097656 43.230469 159.082031 43.328125 159.011719 43.378906 C 158.941406 43.429688 158.84375 43.414062 158.792969 43.34375 C 155.421875 38.664062 152.664062 37.519531 150.453125 39.800781 C 148.371094 41.949219 147.203125 44.566406 146.9375 47.5625 C 146.933594 47.644531 146.917969 47.742188 146.894531 47.851562 L 146.417969 57.929688 L 146.101562 57.914062 L 146.277344 54.203125 L 142.910156 54.203125 C 142.789062 54.203125 142.710938 54.066406 142.777344 53.960938 Z M 146.292969 53.886719 L 146.542969 48.578125 L 143.195312 53.886719 Z M 146.292969 53.886719 " fill-opacity="1" fill-rule="nonzero"/><path fill="#263e4b" d="M 192.855469 62.074219 C 192.769531 62.070312 192.703125 62 192.707031 61.910156 C 192.710938 61.824219 192.78125 61.757812 192.867188 61.761719 C 194.023438 61.804688 194.574219 61.140625 194.550781 59.6875 C 194.527344 58.226562 194.046875 57.546875 193.101562 57.566406 C 193.015625 57.566406 192.941406 57.496094 192.941406 57.410156 C 192.941406 57.324219 193.007812 57.253906 193.09375 57.25 C 194.246094 57.230469 194.839844 58.070312 194.863281 59.683594 C 194.890625 61.300781 194.210938 62.125 192.855469 62.074219 Z M 192.523438 73.128906 C 192.4375 73.121094 192.371094 73.046875 192.378906 72.957031 C 192.386719 72.871094 192.464844 72.808594 192.550781 72.816406 C 193.703125 72.921875 194.285156 72.285156 194.339844 70.832031 C 194.390625 69.375 193.949219 68.671875 193 68.636719 C 192.914062 68.636719 192.847656 68.5625 192.851562 68.476562 C 192.855469 68.390625 192.925781 68.320312 193.011719 68.324219 C 194.164062 68.363281 194.710938 69.234375 194.652344 70.84375 C 194.59375 72.464844 193.871094 73.25 192.523438 73.128906 Z M 185.660156 85.363281 C 185.582031 85.328125 185.546875 85.234375 185.582031 85.152344 C 185.613281 85.074219 185.707031 85.039062 185.789062 85.074219 C 186.855469 85.542969 187.566406 85.234375 187.996094 84.117188 C 188.429688 82.996094 188.203125 82.300781 187.3125 81.957031 C 187.230469 81.929688 187.191406 81.835938 187.21875 81.757812 C 187.25 81.675781 187.34375 81.632812 187.421875 81.664062 C 188.492188 82.074219 188.78125 82.957031 188.289062 84.230469 C 187.792969 85.511719 186.894531 85.902344 185.660156 85.363281 Z M 174.359375 43.527344 L 174.664062 43.609375 C 174.089844 45.757812 172.894531 47.027344 171.089844 47.386719 L 171.027344 47.078125 C 172.710938 46.742188 173.816406 45.566406 174.359375 43.527344 Z M 174.359375 43.527344 " fill-opacity="1" fill-rule="nonzero"/><path fill="#263e4b" d="M 156.78125 47.695312 L 157.199219 49.265625 C 157.222656 49.347656 157.308594 49.398438 157.390625 49.375 C 157.476562 49.355469 157.523438 49.269531 157.503906 49.183594 L 157.085938 47.613281 C 157.0625 47.527344 156.976562 47.480469 156.890625 47.5 C 156.808594 47.523438 156.757812 47.609375 156.78125 47.695312 Z M 156.78125 47.695312 " fill-opacity="1" fill-rule="nonzero"/><path fill="#263e4b" d="M 156.898438 47.804688 L 158.257812 48.121094 C 158.34375 48.140625 158.425781 48.085938 158.445312 48.003906 C 158.464844 47.917969 158.414062 47.832031 158.328125 47.816406 L 156.96875 47.5 C 156.882812 47.480469 156.800781 47.535156 156.78125 47.617188 C 156.761719 47.703125 156.8125 47.785156 156.898438 47.804688 Z M 156.898438 47.804688 " fill-opacity="1" fill-rule="nonzero"/><path fill="#263e4b" d="M 215.964844 48.800781 C 214.90625 47.523438 213.066406 47.386719 211.550781 48.386719 C 210.957031 48.777344 210.527344 49.332031 210.324219 49.964844 C 209.816406 51.5625 211.820312 55.640625 216.34375 62.304688 C 216.390625 62.375 216.488281 62.394531 216.558594 62.347656 C 216.632812 62.296875 216.648438 62.199219 216.601562 62.128906 C 212.152344 55.570312 210.160156 51.515625 210.625 50.058594 C 210.804688 49.496094 211.191406 49 211.722656 48.648438 C 213.113281 47.734375 214.773438 47.855469 215.722656 49 C 215.777344 49.070312 215.875 49.078125 215.945312 49.023438 C 216.011719 48.96875 216.019531 48.867188 215.964844 48.800781 Z M 215.964844 48.800781 " fill-opacity="1" fill-rule="nonzero"/></svg>