<svg xmlns="http://www.w3.org/2000/svg" xmlns:xlink="http://www.w3.org/1999/xlink" width="467" zoomAndPan="magnify" viewBox="0 0 350.25 161.249994" height="215" preserveAspectRatio="xMidYMid meet" version="1.0"><defs><clipPath id="2cdc77929e"><path d="M 137 43 L 346.097656 43 L 346.097656 129 L 137 129 Z M 137 43 " clip-rule="nonzero"/></clipPath><clipPath id="ab70474e8f"><path d="M 27 2.824219 L 162 2.824219 L 162 124 L 27 124 Z M 27 2.824219 " clip-rule="nonzero"/></clipPath></defs><g clip-path="url(#2cdc77929e)"><path fill="#3e8fe7" d="M 303.292969 43.472656 L 137.683594 43.472656 C 138.722656 45.046875 139.703125 46.660156 140.621094 48.304688 C 141.542969 49.949219 142.402344 51.628906 143.199219 53.335938 C 144 55.046875 144.734375 56.78125 145.40625 58.542969 C 146.078125 60.304688 146.683594 62.089844 147.226562 63.894531 C 147.769531 65.699219 148.246094 67.523438 148.65625 69.363281 C 149.0625 71.203125 149.40625 73.054688 149.679688 74.921875 C 149.953125 76.785156 150.160156 78.660156 150.300781 80.539062 C 150.4375 82.417969 150.507812 84.300781 150.507812 86.1875 C 150.511719 88.074219 150.441406 89.957031 150.304688 91.835938 C 150.171875 93.714844 149.964844 95.589844 149.695312 97.453125 C 149.421875 99.320312 149.082031 101.171875 148.675781 103.015625 C 148.269531 104.855469 147.792969 106.679688 147.253906 108.484375 C 146.714844 110.292969 146.109375 112.078125 145.441406 113.839844 C 144.769531 115.601562 144.035156 117.335938 143.242188 119.046875 C 142.445312 120.757812 141.585938 122.433594 140.667969 124.082031 C 139.75 125.730469 138.773438 127.339844 137.738281 128.917969 L 303.292969 128.917969 C 326.933594 128.917969 346.09375 109.789062 346.09375 86.195312 C 346.09375 62.597656 326.933594 43.472656 303.292969 43.472656 Z M 303.292969 43.472656 " fill-opacity="1" fill-rule="nonzero"/></g><path fill="#ffffff" d="M 173.230469 90.847656 L 179.058594 71.539062 L 184.960938 71.539062 L 176.003906 97.214844 L 170.472656 97.214844 L 161.554688 71.539062 L 167.433594 71.539062 Z M 173.230469 90.847656 " fill-opacity="1" fill-rule="nonzero"/><path fill="#ffffff" d="M 204.664062 86.050781 L 194.488281 86.050781 L 194.488281 92.964844 L 206.429688 92.964844 L 206.429688 97.210938 L 189.1875 97.210938 L 189.1875 71.539062 L 206.394531 71.539062 L 206.394531 75.824219 L 194.488281 75.824219 L 194.488281 81.945312 L 204.664062 81.945312 Z M 204.664062 86.050781 " fill-opacity="1" fill-rule="nonzero"/><path fill="#ffffff" d="M 220.871094 87.816406 L 216.648438 87.816406 L 216.648438 97.214844 L 211.347656 97.214844 L 211.347656 71.539062 L 220.90625 71.539062 C 223.945312 71.539062 226.289062 72.214844 227.9375 73.566406 C 229.585938 74.917969 230.410156 76.832031 230.410156 79.296875 C 230.410156 81.050781 230.03125 82.511719 229.269531 83.679688 C 228.511719 84.851562 227.359375 85.78125 225.816406 86.476562 L 231.382812 96.964844 L 231.382812 97.214844 L 225.691406 97.214844 Z M 216.648438 83.53125 L 220.921875 83.53125 C 222.253906 83.53125 223.285156 83.191406 224.015625 82.515625 C 224.746094 81.839844 225.109375 80.910156 225.109375 79.722656 C 225.109375 78.511719 224.765625 77.558594 224.078125 76.863281 C 223.386719 76.171875 222.332031 75.824219 220.90625 75.824219 L 216.648438 75.824219 Z M 216.648438 83.53125 " fill-opacity="1" fill-rule="nonzero"/><path fill="#ffffff" d="M 236.582031 71.539062 L 241.882812 71.539062 L 241.882812 97.214844 L 236.582031 97.214844 Z M 236.582031 71.539062 " fill-opacity="1" fill-rule="nonzero"/><path fill="#ffffff" d="M 264.074219 86.722656 L 253.902344 86.722656 L 253.902344 97.214844 L 248.601562 97.214844 L 248.601562 71.539062 L 265.347656 71.539062 L 265.347656 75.824219 L 253.902344 75.824219 L 253.902344 82.453125 L 264.074219 82.453125 Z M 264.074219 86.722656 " fill-opacity="1" fill-rule="nonzero"/><path fill="#ffffff" d="M 270.566406 71.539062 L 275.867188 71.539062 L 275.867188 97.214844 L 270.566406 97.214844 Z M 270.566406 71.539062 " fill-opacity="1" fill-rule="nonzero"/><path fill="#ffffff" d="M 298.058594 86.050781 L 287.886719 86.050781 L 287.886719 92.964844 L 299.828125 92.964844 L 299.828125 97.210938 L 282.585938 97.210938 L 282.585938 71.539062 L 299.792969 71.539062 L 299.792969 75.824219 L 287.886719 75.824219 L 287.886719 81.945312 L 298.058594 81.945312 Z M 298.058594 86.050781 " fill-opacity="1" fill-rule="nonzero"/><path fill="#ffffff" d="M 304.746094 97.214844 L 304.746094 71.539062 L 312.660156 71.539062 C 314.820312 71.503906 316.839844 72.011719 318.726562 73.066406 C 320.546875 74.101562 321.9375 75.546875 322.90625 77.402344 C 323.90625 79.277344 324.40625 81.410156 324.40625 83.792969 L 324.40625 84.976562 C 324.40625 87.363281 323.914062 89.484375 322.929688 91.34375 C 321.972656 93.191406 320.585938 94.632812 318.769531 95.660156 C 316.890625 96.71875 314.871094 97.234375 312.710938 97.214844 Z M 310.042969 75.824219 L 310.042969 92.964844 L 312.605469 92.964844 C 314.679688 92.964844 316.261719 92.289062 317.359375 90.9375 C 318.453125 89.585938 319.011719 87.652344 319.035156 85.136719 L 319.035156 83.777344 C 319.035156 81.167969 318.496094 79.191406 317.410156 77.84375 C 316.328125 76.496094 314.742188 75.824219 312.660156 75.824219 Z M 310.042969 75.824219 " fill-opacity="1" fill-rule="nonzero"/><path fill="#3e8fe7" d="M 72.425781 16.558594 C 71.09375 16.558594 69.761719 16.597656 68.429688 16.671875 C 67.101562 16.75 65.773438 16.863281 64.449219 17.015625 C 63.125 17.167969 61.804688 17.359375 60.492188 17.585938 C 59.179688 17.8125 57.875 18.078125 56.574219 18.378906 C 55.277344 18.683594 53.988281 19.019531 52.710938 19.398438 C 51.429688 19.773438 50.164062 20.183594 48.910156 20.632812 C 47.65625 21.082031 46.414062 21.5625 45.1875 22.082031 C 43.960938 22.601562 42.746094 23.15625 41.550781 23.746094 C 40.355469 24.332031 39.179688 24.957031 38.019531 25.609375 C 36.859375 26.265625 35.71875 26.957031 34.597656 27.675781 C 33.480469 28.398438 32.378906 29.148438 31.304688 29.933594 C 30.226562 30.71875 29.171875 31.53125 28.140625 32.375 C 27.113281 33.21875 26.105469 34.09375 25.125 34.992188 C 24.144531 35.894531 23.191406 36.824219 22.265625 37.78125 C 21.339844 38.734375 20.441406 39.71875 19.570312 40.726562 C 18.699219 41.730469 17.859375 42.765625 17.046875 43.820312 C 16.234375 44.875 15.453125 45.953125 14.703125 47.050781 C 13.957031 48.152344 13.238281 49.273438 12.554688 50.414062 C 11.867188 51.554688 11.214844 52.714844 10.597656 53.894531 C 9.976562 55.074219 9.394531 56.269531 8.84375 57.480469 C 8.292969 58.691406 7.777344 59.917969 7.300781 61.160156 C 6.820312 62.402344 6.375 63.65625 5.96875 64.921875 C 5.558594 66.1875 5.1875 67.464844 4.855469 68.753906 C 4.519531 70.039062 4.222656 71.335938 3.964844 72.640625 C 3.703125 73.945312 3.480469 75.257812 3.296875 76.574219 C 3.109375 77.894531 2.964844 79.214844 2.855469 80.542969 C 2.746094 81.867188 2.675781 83.195312 2.644531 84.523438 C 2.609375 85.855469 2.617188 87.183594 2.660156 88.515625 C 2.703125 89.84375 2.785156 91.171875 2.902344 92.496094 C 3.023438 93.820312 3.179688 95.140625 3.378906 96.457031 C 3.574219 97.773438 3.804688 99.082031 4.078125 100.386719 C 4.347656 101.6875 4.65625 102.984375 5 104.269531 C 5.34375 105.554688 5.726562 106.828125 6.144531 108.089844 C 6.5625 109.355469 7.015625 110.605469 7.507812 111.84375 C 7.996094 113.078125 8.519531 114.300781 9.082031 115.507812 C 9.640625 116.714844 10.234375 117.90625 10.863281 119.078125 C 11.492188 120.253906 12.152344 121.40625 12.847656 122.542969 C 13.542969 123.679688 14.269531 124.792969 15.027344 125.886719 C 15.785156 126.980469 16.574219 128.054688 17.394531 129.101562 C 18.214844 130.152344 19.066406 131.175781 19.945312 132.175781 C 20.824219 133.175781 21.730469 134.148438 22.664062 135.097656 C 23.597656 136.046875 24.558594 136.96875 25.546875 137.859375 C 26.535156 138.753906 27.546875 139.621094 28.585938 140.453125 C 29.621094 141.289062 30.683594 142.097656 31.765625 142.871094 C 32.851562 143.644531 33.953125 144.390625 35.082031 145.101562 C 36.207031 145.8125 37.351562 146.492188 38.515625 147.136719 C 39.683594 147.785156 40.863281 148.398438 42.066406 148.976562 C 43.265625 149.554688 44.480469 150.097656 45.710938 150.605469 C 46.945312 151.117188 48.1875 151.589844 49.449219 152.027344 C 50.707031 152.464844 51.976562 152.867188 53.257812 153.234375 C 54.539062 153.597656 55.832031 153.925781 57.132812 154.21875 C 58.433594 154.507812 59.738281 154.761719 61.054688 154.980469 C 62.371094 155.195312 63.691406 155.375 65.015625 155.515625 C 66.339844 155.660156 67.667969 155.761719 69 155.828125 C 70.332031 155.890625 71.664062 155.917969 72.996094 155.910156 C 74.328125 155.898438 75.660156 155.847656 76.992188 155.761719 C 78.320312 155.675781 79.648438 155.550781 80.96875 155.386719 C 82.292969 155.222656 83.609375 155.023438 84.921875 154.785156 C 86.234375 154.546875 87.535156 154.273438 88.832031 153.957031 C 90.128906 153.644531 91.414062 153.296875 92.6875 152.910156 C 93.964844 152.523438 95.226562 152.101562 96.480469 151.644531 C 97.730469 151.183594 98.96875 150.691406 100.191406 150.160156 C 101.414062 149.632812 102.621094 149.070312 103.808594 148.472656 C 105 147.871094 106.171875 147.242188 107.328125 146.574219 C 108.480469 145.910156 109.617188 145.214844 110.730469 144.484375 C 111.84375 143.753906 112.9375 142.992188 114.007812 142.199219 C 115.078125 141.40625 116.125 140.585938 117.148438 139.730469 C 118.171875 138.878906 119.171875 138 120.144531 137.089844 C 121.117188 136.179688 122.0625 135.242188 122.980469 134.277344 C 123.898438 133.316406 124.789062 132.328125 125.652344 131.3125 C 126.515625 130.296875 127.347656 129.257812 128.152344 128.199219 C 128.953125 127.136719 129.726562 126.050781 130.464844 124.945312 C 131.207031 123.839844 131.914062 122.710938 132.589844 121.566406 C 133.265625 120.417969 133.910156 119.253906 134.515625 118.070312 C 135.125 116.886719 135.699219 115.6875 136.242188 114.46875 C 136.78125 113.253906 137.285156 112.023438 137.753906 110.777344 C 138.226562 109.535156 138.660156 108.277344 139.054688 107.003906 C 139.453125 105.734375 139.8125 104.457031 140.136719 103.164062 C 140.460938 101.875 140.75 100.574219 140.996094 99.269531 C 141.246094 97.960938 141.457031 96.648438 141.632812 95.328125 C 141.804688 94.011719 141.941406 92.6875 142.039062 91.359375 C 142.140625 90.035156 142.199219 88.707031 142.21875 87.375 C 142.242188 86.042969 142.226562 84.714844 142.171875 83.386719 C 142.117188 82.054688 142.023438 80.730469 141.894531 79.40625 C 141.761719 78.082031 141.59375 76.761719 141.386719 75.449219 C 141.183594 74.132812 140.9375 72.828125 140.65625 71.527344 C 140.375 70.226562 140.058594 68.933594 139.703125 67.652344 C 139.34375 66.371094 138.953125 65.097656 138.523438 63.839844 C 138.097656 62.578125 137.632812 61.332031 137.132812 60.097656 C 136.632812 58.867188 136.097656 57.648438 135.527344 56.445312 C 134.957031 55.242188 134.355469 54.058594 133.714844 52.890625 C 133.078125 51.71875 132.40625 50.570312 131.703125 49.441406 C 131 48.3125 130.265625 47.203125 129.496094 46.117188 C 128.730469 45.027344 127.929688 43.960938 127.101562 42.921875 C 126.273438 41.878906 125.414062 40.859375 124.527344 39.867188 C 123.640625 38.875 122.726562 37.90625 121.785156 36.96875 C 118.550781 33.722656 115.03125 30.824219 111.222656 28.277344 C 107.410156 25.730469 103.390625 23.578125 99.152344 21.828125 C 94.917969 20.078125 90.550781 18.757812 86.050781 17.871094 C 81.554688 16.984375 77.011719 16.546875 72.425781 16.558594 Z M 72.425781 16.558594 " fill-opacity="1" fill-rule="nonzero"/><g clip-path="url(#ab70474e8f)"><path fill="#393a39" d="M 27.6875 85.128906 L 32.261719 87.691406 C 41.816406 93.039062 59.621094 108.601562 65.84375 117.597656 L 69.890625 123.445312 L 71.921875 119.257812 C 79.894531 102.832031 161.09375 37.011719 161.09375 37.011719 L 139.402344 2.828125 C 139.402344 2.828125 74.144531 82.707031 68.96875 97.125 L 68.027344 99.738281 L 61.164062 91.339844 C 56.882812 86.101562 39.691406 76.914062 34.109375 80.734375 Z M 27.6875 85.128906 " fill-opacity="1" fill-rule="nonzero"/></g></svg>