<svg xmlns="http://www.w3.org/2000/svg" xmlns:xlink="http://www.w3.org/1999/xlink" width="700" zoomAndPan="magnify" viewBox="0 0 525 374.999991" height="500" preserveAspectRatio="xMidYMid meet" version="1.0"><defs><clipPath id="e3b8bb21bf"><path d="M 10.136719 72 L 345 72 L 345 302.832031 L 10.136719 302.832031 Z M 10.136719 72 " clip-rule="nonzero"/></clipPath><clipPath id="b5e4f15064"><path d="M 323 72 L 514.886719 72 L 514.886719 150 L 323 150 Z M 323 72 " clip-rule="nonzero"/></clipPath><clipPath id="1970b8c814"><path d="M 323 149 L 334 149 L 334 302.832031 L 323 302.832031 Z M 323 149 " clip-rule="nonzero"/></clipPath></defs><g clip-path="url(#e3b8bb21bf)"><path fill="#0652e9" d="M 327 105.039062 L 324.851562 111.789062 L 269.734375 285.175781 C 268.503906 289.167969 266.148438 291.828125 263.382812 292.542969 C 262.972656 292.644531 262.460938 292.746094 262.050781 292.746094 C 258.875 292.441406 255.90625 289.984375 254.367188 285.484375 L 183.988281 78.441406 L 183.167969 75.886719 C 182.449219 73.839844 180.605469 72.507812 178.351562 72.507812 L 178.25 72.507812 C 176.097656 72.507812 174.152344 73.941406 173.539062 75.988281 L 107.152344 285.175781 C 105.925781 289.167969 103.566406 291.828125 100.800781 292.542969 C 100.390625 292.644531 99.878906 292.746094 99.46875 292.746094 L 99.367188 292.746094 C 96.191406 292.746094 93.222656 289.984375 91.683594 285.484375 L 21.40625 78.441406 L 20.585938 75.886719 C 19.664062 73.328125 16.796875 71.894531 14.132812 72.816406 C 11.570312 73.636719 10.136719 76.5 11.058594 79.160156 L 82.257812 288.757812 C 84.617188 295.816406 89.738281 300.726562 95.472656 302.261719 C 96.804688 302.667969 98.242188 302.773438 99.675781 302.773438 C 107.460938 302.667969 114.015625 297.144531 116.886719 288.246094 L 178.761719 93.683594 L 183.886719 108.824219 L 244.941406 288.757812 C 247.300781 295.816406 252.113281 300.726562 258.054688 302.261719 C 259.386719 302.566406 260.71875 302.773438 262.152344 302.773438 L 262.359375 302.773438 C 270.144531 302.667969 276.699219 297.144531 279.570312 288.246094 L 323.621094 149.636719 L 334.480469 114.65625 L 336.527344 108.3125 L 337.347656 105.652344 L 344.828125 82.226562 C 336.9375 87.957031 330.691406 95.832031 327 105.039062 Z M 327 105.039062 " fill-opacity="1" fill-rule="nonzero"/></g><g clip-path="url(#b5e4f15064)"><path fill="#0652e9" d="M 509.765625 72.507812 L 374.945312 72.507812 C 363.78125 72.507812 353.332031 76.089844 344.828125 82.226562 C 336.9375 87.957031 330.691406 95.832031 327 105.039062 C 326.183594 107.1875 325.464844 109.4375 324.851562 111.6875 C 323.929688 115.574219 323.417969 119.667969 323.417969 123.859375 L 323.417969 149.535156 L 334.480469 114.65625 C 334.992188 112.507812 335.605469 110.359375 336.527344 108.3125 C 339.808594 100.332031 345.441406 93.683594 352.613281 89.082031 C 359.066406 84.988281 366.75 82.535156 374.945312 82.535156 L 509.867188 82.535156 C 512.632812 82.535156 514.886719 80.285156 514.886719 77.523438 C 514.785156 74.761719 512.53125 72.507812 509.765625 72.507812 Z M 509.765625 72.507812 " fill-opacity="1" fill-rule="nonzero"/></g><path fill="#ed1c24" d="M 458.644531 187.691406 C 458.644531 190.453125 456.390625 192.703125 453.625 192.703125 L 382.628906 192.703125 C 379.863281 192.703125 377.609375 190.453125 377.609375 187.691406 C 377.609375 184.929688 379.863281 182.679688 382.628906 182.679688 L 453.625 182.679688 C 456.390625 182.578125 458.644531 184.828125 458.644531 187.691406 Z M 458.644531 187.691406 " fill-opacity="1" fill-rule="nonzero"/><g clip-path="url(#1970b8c814)"><path fill="#ed1c24" d="M 323.417969 180.941406 L 333.457031 149.230469 L 333.457031 297.757812 C 333.457031 300.519531 331.203125 302.773438 328.4375 302.773438 C 325.671875 302.773438 323.417969 300.519531 323.417969 297.757812 Z M 323.417969 180.941406 " fill-opacity="1" fill-rule="nonzero"/></g></svg>