<svg xmlns="http://www.w3.org/2000/svg" xmlns:xlink="http://www.w3.org/1999/xlink" width="500" zoomAndPan="magnify" viewBox="0 0 375 374.999991" height="500" preserveAspectRatio="xMidYMid meet" version="1.0"><defs><g/><clipPath id="778fd749c4"><path d="M 40 63 L 236 63 L 236 197.996094 L 40 197.996094 Z M 40 63 " clip-rule="nonzero"/></clipPath><clipPath id="f858a1cc54"><path d="M 223 63 L 335.429688 63 L 335.429688 109 L 223 109 Z M 223 63 " clip-rule="nonzero"/></clipPath><clipPath id="3ffb7fb390"><path d="M 223 108 L 230 108 L 230 197.996094 L 223 197.996094 Z M 223 108 " clip-rule="nonzero"/></clipPath></defs><g fill="#ffffff" fill-opacity="1"><g transform="translate(39.92842, 270.522004)"><g><path d="M 4.90625 0 L 1.90625 -38.109375 L 6 -38.109375 L 7.59375 -16.265625 L 8.40625 -4.75 L 8.84375 -4.75 L 13.859375 -28.171875 L 19 -28.171875 L 24.015625 -4.75 L 24.453125 -4.75 L 25.28125 -16.265625 L 26.859375 -38.109375 L 30.84375 -38.109375 L 27.84375 0 L 21.234375 0 L 16.59375 -22.765625 L 16.15625 -22.765625 L 11.515625 0 Z M 4.90625 0 "/></g></g></g><g fill="#ffffff" fill-opacity="1"><g transform="translate(72.68926, 270.522004)"><g><path d="M 16.375 0.65625 C 14.050781 0.65625 12.050781 0.210938 10.375 -0.671875 C 8.695312 -1.566406 7.3125 -2.851562 6.21875 -4.53125 C 5.125 -6.207031 4.320312 -8.265625 3.8125 -10.703125 C 3.3125 -13.140625 3.0625 -15.921875 3.0625 -19.046875 C 3.0625 -22.140625 3.3125 -24.914062 3.8125 -27.375 C 4.320312 -29.832031 5.125 -31.898438 6.21875 -33.578125 C 7.3125 -35.253906 8.695312 -36.535156 10.375 -37.421875 C 12.050781 -38.316406 14.050781 -38.765625 16.375 -38.765625 C 18.707031 -38.765625 20.707031 -38.316406 22.375 -37.421875 C 24.050781 -36.535156 25.4375 -35.253906 26.53125 -33.578125 C 27.625 -31.898438 28.425781 -29.832031 28.9375 -27.375 C 29.445312 -24.914062 29.703125 -22.140625 29.703125 -19.046875 C 29.703125 -15.921875 29.445312 -13.140625 28.9375 -10.703125 C 28.425781 -8.265625 27.625 -6.207031 26.53125 -4.53125 C 25.4375 -2.851562 24.050781 -1.566406 22.375 -0.671875 C 20.707031 0.210938 18.707031 0.65625 16.375 0.65625 Z M 16.375 -3.328125 C 17.90625 -3.328125 19.195312 -3.625 20.25 -4.21875 C 21.3125 -4.820312 22.1875 -5.671875 22.875 -6.765625 C 23.5625 -7.859375 24.0625 -9.175781 24.375 -10.71875 C 24.6875 -12.269531 24.84375 -14.007812 24.84375 -15.9375 L 24.84375 -22.171875 C 24.84375 -24.054688 24.6875 -25.78125 24.375 -27.34375 C 24.0625 -28.914062 23.5625 -30.242188 22.875 -31.328125 C 22.1875 -32.421875 21.3125 -33.269531 20.25 -33.875 C 19.195312 -34.476562 17.90625 -34.78125 16.375 -34.78125 C 14.84375 -34.78125 13.550781 -34.476562 12.5 -33.875 C 11.445312 -33.269531 10.570312 -32.421875 9.875 -31.328125 C 9.1875 -30.242188 8.6875 -28.914062 8.375 -27.34375 C 8.070312 -25.78125 7.921875 -24.054688 7.921875 -22.171875 L 7.921875 -15.9375 C 7.921875 -14.007812 8.070312 -12.269531 8.375 -10.71875 C 8.6875 -9.175781 9.1875 -7.859375 9.875 -6.765625 C 10.570312 -5.671875 11.445312 -4.820312 12.5 -4.21875 C 13.550781 -3.625 14.84375 -3.328125 16.375 -3.328125 Z M 16.375 -3.328125 "/></g></g></g><g fill="#ffffff" fill-opacity="1"><g transform="translate(105.4501, 270.522004)"><g><path d="M 9.5 0 L 4.90625 0 L 4.90625 -38.109375 L 18.78125 -38.109375 C 22.3125 -38.109375 25.003906 -37.140625 26.859375 -35.203125 C 28.710938 -33.273438 29.640625 -30.585938 29.640625 -27.140625 C 29.640625 -24.046875 28.835938 -21.566406 27.234375 -19.703125 C 25.640625 -17.847656 23.3125 -16.773438 20.25 -16.484375 L 29.96875 0 L 24.84375 0 L 15.5625 -16.265625 L 9.5 -16.265625 Z M 18.671875 -20.140625 C 20.597656 -20.140625 22.097656 -20.617188 23.171875 -21.578125 C 24.242188 -22.546875 24.78125 -23.925781 24.78125 -25.71875 L 24.78125 -28.546875 C 24.78125 -30.335938 24.242188 -31.710938 23.171875 -32.671875 C 22.097656 -33.640625 20.597656 -34.125 18.671875 -34.125 L 9.5 -34.125 L 9.5 -20.140625 Z M 18.671875 -20.140625 "/></g></g></g><g fill="#ffffff" fill-opacity="1"><g transform="translate(138.210939, 270.522004)"><g><path d="M 14.6875 -18.671875 L 9.21875 -12.234375 L 9.21875 0 L 4.640625 0 L 4.640625 -38.109375 L 9.21875 -38.109375 L 9.21875 -18.234375 L 9.390625 -18.234375 L 14.40625 -24.5625 L 25.65625 -38.109375 L 31.171875 -38.109375 L 17.796875 -22.0625 L 31.5625 0 L 26.203125 0 Z M 14.6875 -18.671875 "/></g></g></g><g fill="#ffffff" fill-opacity="1"><g transform="translate(170.971779, 270.522004)"><g><path d="M 4.90625 0 L 4.90625 -38.109375 L 28.9375 -38.109375 L 28.9375 -34.125 L 9.5 -34.125 L 9.5 -21.296875 L 27.296875 -21.296875 L 27.296875 -17.3125 L 9.5 -17.3125 L 9.5 0 Z M 4.90625 0 "/></g></g></g><g fill="#ffffff" fill-opacity="1"><g transform="translate(203.732619, 270.522004)"><g><path d="M 16.375 0.65625 C 14.050781 0.65625 12.050781 0.210938 10.375 -0.671875 C 8.695312 -1.566406 7.3125 -2.851562 6.21875 -4.53125 C 5.125 -6.207031 4.320312 -8.265625 3.8125 -10.703125 C 3.3125 -13.140625 3.0625 -15.921875 3.0625 -19.046875 C 3.0625 -22.140625 3.3125 -24.914062 3.8125 -27.375 C 4.320312 -29.832031 5.125 -31.898438 6.21875 -33.578125 C 7.3125 -35.253906 8.695312 -36.535156 10.375 -37.421875 C 12.050781 -38.316406 14.050781 -38.765625 16.375 -38.765625 C 18.707031 -38.765625 20.707031 -38.316406 22.375 -37.421875 C 24.050781 -36.535156 25.4375 -35.253906 26.53125 -33.578125 C 27.625 -31.898438 28.425781 -29.832031 28.9375 -27.375 C 29.445312 -24.914062 29.703125 -22.140625 29.703125 -19.046875 C 29.703125 -15.921875 29.445312 -13.140625 28.9375 -10.703125 C 28.425781 -8.265625 27.625 -6.207031 26.53125 -4.53125 C 25.4375 -2.851562 24.050781 -1.566406 22.375 -0.671875 C 20.707031 0.210938 18.707031 0.65625 16.375 0.65625 Z M 16.375 -3.328125 C 17.90625 -3.328125 19.195312 -3.625 20.25 -4.21875 C 21.3125 -4.820312 22.1875 -5.671875 22.875 -6.765625 C 23.5625 -7.859375 24.0625 -9.175781 24.375 -10.71875 C 24.6875 -12.269531 24.84375 -14.007812 24.84375 -15.9375 L 24.84375 -22.171875 C 24.84375 -24.054688 24.6875 -25.78125 24.375 -27.34375 C 24.0625 -28.914062 23.5625 -30.242188 22.875 -31.328125 C 22.1875 -32.421875 21.3125 -33.269531 20.25 -33.875 C 19.195312 -34.476562 17.90625 -34.78125 16.375 -34.78125 C 14.84375 -34.78125 13.550781 -34.476562 12.5 -33.875 C 11.445312 -33.269531 10.570312 -32.421875 9.875 -31.328125 C 9.1875 -30.242188 8.6875 -28.914062 8.375 -27.34375 C 8.070312 -25.78125 7.921875 -24.054688 7.921875 -22.171875 L 7.921875 -15.9375 C 7.921875 -14.007812 8.070312 -12.269531 8.375 -10.71875 C 8.6875 -9.175781 9.1875 -7.859375 9.875 -6.765625 C 10.570312 -5.671875 11.445312 -4.820312 12.5 -4.21875 C 13.550781 -3.625 14.84375 -3.328125 16.375 -3.328125 Z M 16.375 -3.328125 "/></g></g></g><g fill="#ffffff" fill-opacity="1"><g transform="translate(236.493459, 270.522004)"><g><path d="M 6.546875 0 L 6.546875 -38.109375 L 11.140625 -38.109375 L 11.140625 -3.984375 L 29.203125 -3.984375 L 29.203125 0 Z M 6.546875 0 "/></g></g></g><g fill="#ffffff" fill-opacity="1"><g transform="translate(269.254299, 270.522004)"><g><path d="M 4.578125 0 L 4.578125 -3.65625 L 14.078125 -3.65625 L 14.078125 -34.453125 L 4.578125 -34.453125 L 4.578125 -38.109375 L 28.171875 -38.109375 L 28.171875 -34.453125 L 18.671875 -34.453125 L 18.671875 -3.65625 L 28.171875 -3.65625 L 28.171875 0 Z M 4.578125 0 "/></g></g></g><g fill="#ffffff" fill-opacity="1"><g transform="translate(302.015139, 270.522004)"><g><path d="M 16.375 0.65625 C 14.050781 0.65625 12.050781 0.210938 10.375 -0.671875 C 8.695312 -1.566406 7.3125 -2.851562 6.21875 -4.53125 C 5.125 -6.207031 4.320312 -8.265625 3.8125 -10.703125 C 3.3125 -13.140625 3.0625 -15.921875 3.0625 -19.046875 C 3.0625 -22.140625 3.3125 -24.914062 3.8125 -27.375 C 4.320312 -29.832031 5.125 -31.898438 6.21875 -33.578125 C 7.3125 -35.253906 8.695312 -36.535156 10.375 -37.421875 C 12.050781 -38.316406 14.050781 -38.765625 16.375 -38.765625 C 18.707031 -38.765625 20.707031 -38.316406 22.375 -37.421875 C 24.050781 -36.535156 25.4375 -35.253906 26.53125 -33.578125 C 27.625 -31.898438 28.425781 -29.832031 28.9375 -27.375 C 29.445312 -24.914062 29.703125 -22.140625 29.703125 -19.046875 C 29.703125 -15.921875 29.445312 -13.140625 28.9375 -10.703125 C 28.425781 -8.265625 27.625 -6.207031 26.53125 -4.53125 C 25.4375 -2.851562 24.050781 -1.566406 22.375 -0.671875 C 20.707031 0.210938 18.707031 0.65625 16.375 0.65625 Z M 16.375 -3.328125 C 17.90625 -3.328125 19.195312 -3.625 20.25 -4.21875 C 21.3125 -4.820312 22.1875 -5.671875 22.875 -6.765625 C 23.5625 -7.859375 24.0625 -9.175781 24.375 -10.71875 C 24.6875 -12.269531 24.84375 -14.007812 24.84375 -15.9375 L 24.84375 -22.171875 C 24.84375 -24.054688 24.6875 -25.78125 24.375 -27.34375 C 24.0625 -28.914062 23.5625 -30.242188 22.875 -31.328125 C 22.1875 -32.421875 21.3125 -33.269531 20.25 -33.875 C 19.195312 -34.476562 17.90625 -34.78125 16.375 -34.78125 C 14.84375 -34.78125 13.550781 -34.476562 12.5 -33.875 C 11.445312 -33.269531 10.570312 -32.421875 9.875 -31.328125 C 9.1875 -30.242188 8.6875 -28.914062 8.375 -27.34375 C 8.070312 -25.78125 7.921875 -24.054688 7.921875 -22.171875 L 7.921875 -15.9375 C 7.921875 -14.007812 8.070312 -12.269531 8.375 -10.71875 C 8.6875 -9.175781 9.1875 -7.859375 9.875 -6.765625 C 10.570312 -5.671875 11.445312 -4.820312 12.5 -4.21875 C 13.550781 -3.625 14.84375 -3.328125 16.375 -3.328125 Z M 16.375 -3.328125 "/></g></g></g><g fill="#ffffff" fill-opacity="1"><g transform="translate(39.92842, 305.503914)"><g><path d="M 2.75 0 L 1.25 -16.40625 L 2.015625 -16.40625 L 3.453125 -0.875 L 3.578125 -0.875 L 6.5625 -11.5625 L 7.578125 -11.5625 L 10.5625 -0.875 L 10.671875 -0.875 L 12.109375 -16.40625 L 12.859375 -16.40625 L 11.359375 0 L 10 0 L 7.109375 -10.46875 L 7 -10.46875 L 4.109375 0 Z M 2.75 0 "/></g></g></g><g fill="#ffffff" fill-opacity="1"><g transform="translate(65.87271, 305.503914)"><g><path d="M 2.453125 0 L 2.453125 -16.40625 L 12.109375 -16.40625 L 12.109375 -15.640625 L 3.296875 -15.640625 L 3.296875 -8.71875 L 11.8125 -8.71875 L 11.8125 -7.953125 L 3.296875 -7.953125 L 3.296875 -0.78125 L 12.109375 -0.78125 L 12.109375 0 Z M 2.453125 0 "/></g></g></g><g fill="#ffffff" fill-opacity="1"><g transform="translate(91.817, 305.503914)"><g><path d="M 2.25 -16.40625 L 7.546875 -16.40625 C 8.816406 -16.40625 9.800781 -16.050781 10.5 -15.34375 C 11.207031 -14.632812 11.5625 -13.597656 11.5625 -12.234375 C 11.5625 -11.179688 11.351562 -10.351562 10.9375 -9.75 C 10.53125 -9.144531 9.957031 -8.722656 9.21875 -8.484375 L 9.21875 -8.4375 C 10.207031 -8.238281 10.960938 -7.796875 11.484375 -7.109375 C 12.015625 -6.429688 12.28125 -5.523438 12.28125 -4.390625 C 12.28125 -3.734375 12.179688 -3.140625 11.984375 -2.609375 C 11.796875 -2.078125 11.523438 -1.613281 11.171875 -1.21875 C 10.828125 -0.832031 10.394531 -0.53125 9.875 -0.3125 C 9.351562 -0.101562 8.765625 0 8.109375 0 L 2.25 0 Z M 7.96875 -0.78125 C 8.53125 -0.78125 9.023438 -0.859375 9.453125 -1.015625 C 9.878906 -1.179688 10.234375 -1.40625 10.515625 -1.6875 C 10.796875 -1.96875 11.003906 -2.296875 11.140625 -2.671875 C 11.285156 -3.054688 11.359375 -3.457031 11.359375 -3.875 L 11.359375 -4.875 C 11.359375 -5.289062 11.285156 -5.6875 11.140625 -6.0625 C 11.003906 -6.4375 10.796875 -6.769531 10.515625 -7.0625 C 10.234375 -7.351562 9.878906 -7.582031 9.453125 -7.75 C 9.023438 -7.914062 8.53125 -8 7.96875 -8 L 3.109375 -8 L 3.109375 -0.78125 Z M 7.5 -8.71875 C 8.03125 -8.71875 8.492188 -8.796875 8.890625 -8.953125 C 9.285156 -9.109375 9.609375 -9.320312 9.859375 -9.59375 C 10.117188 -9.863281 10.316406 -10.179688 10.453125 -10.546875 C 10.585938 -10.910156 10.65625 -11.296875 10.65625 -11.703125 L 10.65625 -12.671875 C 10.65625 -13.078125 10.585938 -13.460938 10.453125 -13.828125 C 10.316406 -14.191406 10.117188 -14.503906 9.859375 -14.765625 C 9.609375 -15.035156 9.285156 -15.25 8.890625 -15.40625 C 8.492188 -15.5625 8.03125 -15.640625 7.5 -15.640625 L 3.109375 -15.640625 L 3.109375 -8.71875 Z M 7.5 -8.71875 "/></g></g></g><g fill="#ffffff" fill-opacity="1"><g transform="translate(117.761291, 305.503914)"><g><path d="M 2.46875 -16.40625 L 6.8125 -16.40625 C 8.789062 -16.40625 10.234375 -15.71875 11.140625 -14.34375 C 12.054688 -12.96875 12.515625 -10.921875 12.515625 -8.203125 C 12.515625 -5.492188 12.054688 -3.445312 11.140625 -2.0625 C 10.234375 -0.6875 8.789062 0 6.8125 0 L 2.46875 0 Z M 6.8125 -0.78125 C 8.457031 -0.78125 9.660156 -1.359375 10.421875 -2.515625 C 11.179688 -3.671875 11.5625 -5.28125 11.5625 -7.34375 L 11.5625 -9.078125 C 11.5625 -11.128906 11.179688 -12.734375 10.421875 -13.890625 C 9.660156 -15.054688 8.457031 -15.640625 6.8125 -15.640625 L 3.3125 -15.640625 L 3.3125 -0.78125 Z M 6.8125 -0.78125 "/></g></g></g><g fill="#ffffff" fill-opacity="1"><g transform="translate(143.705581, 305.503914)"><g><path d="M 2.453125 0 L 2.453125 -16.40625 L 12.109375 -16.40625 L 12.109375 -15.640625 L 3.296875 -15.640625 L 3.296875 -8.71875 L 11.8125 -8.71875 L 11.8125 -7.953125 L 3.296875 -7.953125 L 3.296875 -0.78125 L 12.109375 -0.78125 L 12.109375 0 Z M 2.453125 0 "/></g></g></g><g fill="#ffffff" fill-opacity="1"><g transform="translate(169.649871, 305.503914)"><g><path d="M 7.125 0.28125 C 6.382812 0.28125 5.726562 0.210938 5.15625 0.078125 C 4.582031 -0.0546875 4.066406 -0.242188 3.609375 -0.484375 C 3.160156 -0.722656 2.757812 -1.007812 2.40625 -1.34375 C 2.050781 -1.6875 1.726562 -2.054688 1.4375 -2.453125 L 2.09375 -2.96875 C 2.675781 -2.195312 3.347656 -1.585938 4.109375 -1.140625 C 4.867188 -0.691406 5.875 -0.46875 7.125 -0.46875 C 8.550781 -0.46875 9.65625 -0.789062 10.4375 -1.4375 C 11.21875 -2.082031 11.609375 -3.015625 11.609375 -4.234375 C 11.609375 -4.847656 11.515625 -5.363281 11.328125 -5.78125 C 11.140625 -6.207031 10.878906 -6.5625 10.546875 -6.84375 C 10.222656 -7.125 9.835938 -7.34375 9.390625 -7.5 C 8.941406 -7.65625 8.460938 -7.773438 7.953125 -7.859375 L 6.0625 -8.15625 C 5.238281 -8.300781 4.554688 -8.515625 4.015625 -8.796875 C 3.472656 -9.078125 3.039062 -9.40625 2.71875 -9.78125 C 2.40625 -10.15625 2.179688 -10.570312 2.046875 -11.03125 C 1.921875 -11.5 1.859375 -11.976562 1.859375 -12.46875 C 1.859375 -13.894531 2.328125 -14.957031 3.265625 -15.65625 C 4.203125 -16.351562 5.46875 -16.703125 7.0625 -16.703125 C 8.382812 -16.703125 9.457031 -16.488281 10.28125 -16.0625 C 11.101562 -15.632812 11.757812 -15.070312 12.25 -14.375 L 11.609375 -13.828125 C 11.128906 -14.515625 10.523438 -15.035156 9.796875 -15.390625 C 9.078125 -15.753906 8.144531 -15.9375 7 -15.9375 C 5.65625 -15.9375 4.609375 -15.648438 3.859375 -15.078125 C 3.109375 -14.515625 2.734375 -13.648438 2.734375 -12.484375 C 2.734375 -11.898438 2.820312 -11.40625 3 -11 C 3.175781 -10.59375 3.425781 -10.253906 3.75 -9.984375 C 4.070312 -9.710938 4.453125 -9.492188 4.890625 -9.328125 C 5.328125 -9.160156 5.8125 -9.035156 6.34375 -8.953125 L 8.203125 -8.65625 C 9.054688 -8.507812 9.753906 -8.289062 10.296875 -8 C 10.847656 -7.71875 11.285156 -7.378906 11.609375 -6.984375 C 11.941406 -6.585938 12.171875 -6.15625 12.296875 -5.6875 C 12.421875 -5.21875 12.484375 -4.738281 12.484375 -4.25 C 12.484375 -2.757812 12.003906 -1.628906 11.046875 -0.859375 C 10.097656 -0.0976562 8.789062 0.28125 7.125 0.28125 Z M 7.125 0.28125 "/></g></g></g><g fill="#ffffff" fill-opacity="1"><g transform="translate(195.594162, 305.503914)"><g><path d="M 2.109375 0 L 2.109375 -0.703125 L 6.625 -0.703125 L 6.625 -15.703125 L 2.109375 -15.703125 L 2.109375 -16.40625 L 12 -16.40625 L 12 -15.703125 L 7.484375 -15.703125 L 7.484375 -0.703125 L 12 -0.703125 L 12 0 Z M 2.109375 0 "/></g></g></g><g fill="#ffffff" fill-opacity="1"><g transform="translate(221.538452, 305.503914)"><g><path d="M 11.28125 -2.375 L 11.1875 -2.375 C 11.03125 -2 10.847656 -1.648438 10.640625 -1.328125 C 10.429688 -1.003906 10.164062 -0.722656 9.84375 -0.484375 C 9.53125 -0.253906 9.160156 -0.0703125 8.734375 0.0625 C 8.304688 0.207031 7.785156 0.28125 7.171875 0.28125 C 5.398438 0.28125 4.035156 -0.390625 3.078125 -1.734375 C 2.117188 -3.085938 1.640625 -5.238281 1.640625 -8.1875 C 1.640625 -11.144531 2.125 -13.300781 3.09375 -14.65625 C 4.070312 -16.019531 5.476562 -16.703125 7.3125 -16.703125 C 8.5 -16.703125 9.476562 -16.382812 10.25 -15.75 C 11.019531 -15.113281 11.585938 -14.300781 11.953125 -13.3125 L 11.1875 -13 C 10.875 -13.894531 10.398438 -14.601562 9.765625 -15.125 C 9.128906 -15.65625 8.320312 -15.921875 7.34375 -15.921875 C 5.769531 -15.921875 4.582031 -15.34375 3.78125 -14.1875 C 2.988281 -13.039062 2.59375 -11.34375 2.59375 -9.09375 L 2.59375 -7.34375 C 2.59375 -5.09375 2.984375 -3.382812 3.765625 -2.21875 C 4.546875 -1.050781 5.722656 -0.46875 7.296875 -0.46875 C 7.921875 -0.46875 8.476562 -0.566406 8.96875 -0.765625 C 9.46875 -0.972656 9.890625 -1.265625 10.234375 -1.640625 C 10.578125 -2.015625 10.835938 -2.457031 11.015625 -2.96875 C 11.191406 -3.476562 11.28125 -4.039062 11.28125 -4.65625 L 11.28125 -6.84375 L 7.265625 -6.84375 L 7.265625 -7.578125 L 12.109375 -7.578125 L 12.109375 0 L 11.28125 0 Z M 11.28125 -2.375 "/></g></g></g><g fill="#ffffff" fill-opacity="1"><g transform="translate(247.482742, 305.503914)"><g><path d="M 3.109375 -15.28125 L 3.015625 -15.28125 L 3.015625 0 L 2.203125 0 L 2.203125 -16.40625 L 3.4375 -16.40625 L 11 -1.171875 L 11.09375 -1.171875 L 11.09375 -16.40625 L 11.90625 -16.40625 L 11.90625 0 L 10.671875 0 Z M 3.109375 -15.28125 "/></g></g></g><g clip-path="url(#778fd749c4)"><path fill="#ffffff" d="M 225.433594 82.398438 L 224.171875 86.34375 L 191.90625 187.675781 C 191.1875 190.007812 189.808594 191.5625 188.1875 191.980469 C 187.949219 192.039062 187.648438 192.101562 187.410156 192.101562 C 185.550781 191.921875 183.808594 190.484375 182.910156 187.855469 L 141.707031 66.855469 L 141.226562 65.359375 C 140.808594 64.164062 139.726562 63.386719 138.410156 63.386719 L 138.347656 63.386719 C 137.089844 63.386719 135.949219 64.226562 135.589844 65.421875 L 96.726562 187.675781 C 96.003906 190.007812 94.625 191.5625 93.007812 191.980469 C 92.765625 192.039062 92.46875 192.101562 92.226562 192.101562 L 92.167969 192.101562 C 90.308594 192.101562 88.570312 190.484375 87.667969 187.855469 L 46.527344 66.855469 L 46.046875 65.359375 C 45.507812 63.867188 43.828125 63.03125 42.265625 63.566406 C 40.769531 64.046875 39.929688 65.71875 40.46875 67.273438 L 82.152344 189.769531 C 83.53125 193.894531 86.53125 196.761719 89.886719 197.660156 C 90.667969 197.898438 91.507812 197.957031 92.347656 197.957031 C 96.90625 197.898438 100.742188 194.671875 102.421875 189.46875 L 138.648438 75.761719 L 141.648438 84.609375 L 177.390625 189.769531 C 178.773438 193.894531 181.589844 196.761719 185.070312 197.660156 C 185.847656 197.839844 186.628906 197.957031 187.46875 197.957031 L 187.589844 197.957031 C 192.148438 197.898438 195.984375 194.671875 197.664062 189.46875 L 223.453125 108.464844 L 229.8125 88.019531 L 231.011719 84.3125 L 231.492188 82.757812 L 235.867188 69.066406 C 231.25 72.414062 227.59375 77.019531 225.433594 82.398438 Z M 225.433594 82.398438 " fill-opacity="1" fill-rule="nonzero"/></g><g clip-path="url(#f858a1cc54)"><path fill="#ffffff" d="M 332.429688 63.386719 L 253.5 63.386719 C 246.964844 63.386719 240.847656 65.480469 235.867188 69.066406 C 231.25 72.414062 227.59375 77.019531 225.433594 82.398438 C 224.953125 83.65625 224.535156 84.96875 224.171875 86.285156 C 223.632812 88.558594 223.332031 90.949219 223.332031 93.398438 L 223.332031 108.40625 L 229.8125 88.019531 C 230.109375 86.761719 230.472656 85.507812 231.011719 84.3125 C 232.929688 79.648438 236.230469 75.761719 240.425781 73.074219 C 244.207031 70.683594 248.703125 69.246094 253.5 69.246094 L 332.488281 69.246094 C 334.109375 69.246094 335.429688 67.933594 335.429688 66.316406 C 335.367188 64.703125 334.050781 63.386719 332.429688 63.386719 Z M 332.429688 63.386719 " fill-opacity="1" fill-rule="nonzero"/></g><path fill="#ed1c24" d="M 302.5 130.703125 C 302.5 132.316406 301.183594 133.632812 299.5625 133.632812 L 258 133.632812 C 256.378906 133.632812 255.0625 132.316406 255.0625 130.703125 C 255.0625 129.089844 256.378906 127.773438 258 127.773438 L 299.5625 127.773438 C 301.183594 127.714844 302.5 129.03125 302.5 130.703125 Z M 302.5 130.703125 " fill-opacity="1" fill-rule="nonzero"/><g clip-path="url(#3ffb7fb390)"><path fill="#ed1c24" d="M 223.332031 126.757812 L 229.210938 108.226562 L 229.210938 195.03125 C 229.210938 196.644531 227.890625 197.957031 226.273438 197.957031 C 224.652344 197.957031 223.332031 196.644531 223.332031 195.03125 Z M 223.332031 126.757812 " fill-opacity="1" fill-rule="nonzero"/></g></svg>